<?xml version="1.0" encoding="UTF-8"?>
<svg width="310px" height="58px" viewBox="0 0 310 58" version="1.1" xmlns="http://www.w3.org/2000/svg" xmlns:xlink="http://www.w3.org/1999/xlink">
    <title>EAIT_logo</title>
    <g id="Page-1" stroke="none" stroke-width="1" fill="none" fill-rule="evenodd">
        <g id="ESG" transform="translate(-875.000000, -696.000000)">
            <g id="Option_1" transform="translate(215.000000, 664.000000)">
                <g id="EAIT_logo" transform="translate(660.000000, 32.000000)">
                    <g>
                        <path d="M26.8607429,48.9999258 C26.4025391,47.2406247 25.0187638,46.5834209 23.7424118,45.817528 C21.7258063,44.6078677 21.7186786,44.6230729 20.3588318,46.6622629 C20.3079202,46.7411048 20.2340985,46.8047415 20.1892964,46.8875255 C19.7626578,47.6759447 20.1068197,49.8159396 20.7274312,49.953913 C22.3291079,50.3087016 23.8839459,50.932116 25.1496064,50.9980053 C26.8800892,51.0379894 27.2461431,50.4804644 26.8607429,48.9999258 Z" id="Path"></path>
                        <path d="M47.6719733,22.8408808 C48.2348089,22.0580189 48.0818272,21.4646921 47.1473832,21.2804547 C46.2785842,21.1091669 45.3812439,21.0903311 44.4964619,21.0043929 C41.7776121,20.9784937 41.7781829,20.9779051 42.2131532,23.7273393 C42.2531111,23.9792678 42.27994,24.2329621 42.3147604,24.4854792 C42.3507226,24.7497686 42.4620339,25.0846922 42.7360309,24.9805069 C44.4119794,24.3436223 46.4389867,24.556702 47.6719733,22.8408808 Z" id="Path"></path>
                        <path d="M33.3873845,50.0151436 C33.0199089,49.9383335 32.991317,50.1694952 33.0016289,50.3534736 C33.0170966,50.6230403 32.9805365,50.9770981 33.4656605,50.9994096 C33.7590785,51.0133086 33.9292235,50.7799523 34,50.4935605 C33.9371917,50.2634961 33.7192374,50.0850042 33.3873845,50.0151436 Z" id="Path"></path>
                        <path d="M33.2111534,41.0569347 C32.8793295,41.0236763 32.4121406,40.8493378 32.3438592,41.3428498 C32.0952908,43.1479238 31.6370863,44.9637263 32.512167,47 C33.3311597,45.382086 33.8324492,43.6497889 33.9939943,41.879276 C34.0473017,41.3337306 33.742431,41.1105773 33.2111534,41.0569347 Z" id="Path"></path>
                        <path d="M38.3433463,19.9660646 C38.9459422,20.0884691 39.1856275,19.8961191 38.8420463,19.11995 C38.0355247,17.2974194 37.2367349,15.4703761 36.4741877,13.6235901 C36.2122736,12.9901324 35.8720751,12.8282424 35.3898051,13.1886872 C34.9181664,13.541799 34.0217627,13.179662 34.0009836,14.3044302 C33.9483108,17.0024074 36.018979,19.7302807 38.3433463,19.9660646 Z" id="Path"></path>
                        <path d="M33.6838683,10 C33.4584364,10.9870311 33.2493149,11.9046289 33,13 C35.5100414,12.3332003 35.5642149,12.0399042 33.6838683,10 Z" id="Path"></path>
                        <path d="M34.8632055,40.5496616 C35.0021941,39.6123037 35.1311474,38.6732164 34.7367611,37.7692944 C34.4678157,37.1530363 34.0051895,36.9276323 33.4397017,37.0198693 C32.7342218,37.1351654 33.114057,37.7894712 33.0177184,38.1785958 C33.0814424,38.9038087 33.1536964,39.5961622 33.1998586,40.2908217 C33.2425085,40.9318684 33.6549584,40.9341743 34.0453306,40.9606924 C34.3674629,40.9820222 34.770881,41.1561194 34.8632055,40.5496616 Z" id="Path"></path>
                        <path d="M22,52.7689485 L19,52.7689485 C19.9926914,52.8866216 20.9481089,53.7471408 22,52.7689485 Z" id="Path"></path>
                        <path d="M21.7124216,43.5993505 C22.0904815,42.8448925 22.1105462,42.0235522 21.6844367,41.3053483 C21.2583273,40.5871443 20.8866035,41.3378518 20.5312483,41.5134962 C20.0005916,41.7766501 19.4187172,41.9897985 19,42.6867501 C19.5047839,42.9817826 19.9636304,43.303693 20.4552139,43.5205918 C20.8528105,43.6956111 21.282088,44.4581949 21.7124216,43.5993505 Z" id="Path"></path>
                        <path d="M18,48.7915169 C19.1013447,49.1465521 19.1013447,49.1465521 18.892527,48 C18.5233071,48.2843881 18.1591393,48.4031831 18,48.7915169 Z" id="Path"></path>
                        <path d="M19,44 C19.1609722,44.7782027 19.2904071,45.4005736 19.7463856,46 C21.5367911,44.6357553 21.5131381,44.5626195 19,44 Z" id="Path"></path>
                        <path d="M20.1077407,50.0359686 C19.37489,49.8739564 19.2974386,50.288799 19.3332265,50.6899503 C19.3690144,51.0911017 18.4967511,51.7154192 19.440056,51.8582638 C21.2721828,52.1352819 23.1155267,52.0554167 25,51.1737051 C23.2832491,50.5233744 21.663179,50.3805298 20.1077407,50.0359686 Z" id="Path"></path>
                        <path d="M39.0163426,41.4025984 C38.9226191,41.7643438 39.2506513,41.8326058 39.5252611,41.869563 C39.954046,41.9282596 40.3884543,41.9486948 41,42 C40.6049555,41.4039028 40.2502122,41.1265067 39.7647246,41.0225918 C39.4099812,40.9469384 39.1058485,41.0582446 39.0163426,41.4025984 Z" id="Path"></path>
                        <path d="M21,40.2300102 C20.0625386,39.9050581 19.0979222,40.0472918 18,40 C18.432627,41.2904932 18.4770623,41.2937177 21,40.2300102 Z" id="Path"></path>
                        <path d="M43.0708462,25.980738 C43.5249962,26.1220875 43.7273555,25.4541942 44,25 C43.6655664,25.2451845 43.1712535,24.8305145 43.0028782,25.6920098 C42.9874309,25.7697185 43.0376346,25.9700195 43.0708462,25.980738 Z" id="Path"></path>
                        <path d="M44.6258206,41.9579346 C45.2694545,41.815188 44.8522529,41.3084128 45,40.8742457 C44.839233,40.1639702 44.6869573,39.3593534 44.4701483,38.5680729 C44.2386213,37.7229536 43.8599132,36.9282155 43.060041,36.3562412 C42.0569457,35.6420141 41.2366946,36.1334774 40.4221042,36.681249 C39.4993925,37.3021227 40.3287009,37.7254233 40.658726,38.1669993 C41.4925631,39.281806 42.388103,40.3615434 43.2270348,41.4733864 C43.5802693,41.9436106 44.0789865,42.0794421 44.6258206,41.9579346 Z" id="Path"></path>
                        <path d="M36.8548281,42.8047835 C37.1874084,42.3576386 36.9178798,42.1976843 36.3580363,42.0496747 C35.7039617,41.8767371 35.6610034,42.1867784 35.5840942,42.4963002 C35.3824674,43.3054196 35.1940052,44.1155775 35,44.9257355 L35.2577497,45 C35.7891854,44.2672225 36.3136922,43.532887 36.8548281,42.8047835 Z" id="Path"></path>
                        <path d="M47.9670055,33.1819216 C47.5703625,31.1682664 47.1697924,29.1546111 46.7428542,27 C45.5439489,27.826115 44.4628584,28.5722001 43.3767186,29.3146709 C43.1304297,29.4835081 42.9840028,29.6595739 43.0013945,29.9802098 C43.0945243,31.5369202 45.3677878,33.7333534 47.1013476,33.976541 C47.8682655,34.0839359 48.0932356,33.8231934 47.9670055,33.1819216 Z" id="Path"></path>
                        <path d="M37.1996386,31.8423397 C37.7329707,32.237193 38.1985394,31.7931407 39,31.5673301 C38.2151146,31.2506905 37.7373583,30.8566783 37.1596631,31.0522126 C36.9222474,31.1325289 36.961248,31.665728 37.1996386,31.8423397 Z" id="Path"></path>
                        <path d="M41.0018368,31.4707795 C40.9480965,32.3603133 42.0843206,32.6111327 43,33 C42.6294011,32.3194823 43.1011993,31.4445309 41.9635793,31.0070552 C41.7988687,30.9458086 41.0123057,31.2987057 41.0018368,31.4707795 Z" id="Path"></path>
                        <path d="M42.3639861,33.9425593 C42.0366685,33.6398931 41.6336628,33.386973 41.1104857,33 C40.8933805,33.7001121 41.0069126,34.1347367 41.3574678,34.5248516 C41.736572,34.9437668 42.2710359,35.2055889 42.8068276,34.7908628 C43.3426193,34.3761367 42.6209271,34.1802938 42.3639861,33.9425593 Z" id="Path"></path>
                        <path d="M36.5873275,31.0416889 C36.3712667,30.963504 36.0412321,30.9936423 36.0104661,31.146081 C35.9405435,31.4955108 36.2202339,31.7663188 36.8719124,32 C36.99148,31.5924775 37.1858648,31.2578985 36.5873275,31.0416889 Z" id="Path"></path>
                        <path d="M39.9655884,24.2872439 C39.8741699,23.6621276 39.8611101,23.3545466 39.7801393,23.0653805 C39.5842425,22.3855168 39.7994678,21.3851317 39.0002086,21.130805 C37.9366191,20.7928639 36.8463876,21.1342889 35.9672024,21.872384 C35.7971962,22.0152531 35.6428243,22.1741689 35.5064529,22.3466959 C34.7155519,23.3505649 34.8273437,23.8054664 36.0089937,24.3081475 C36.8850446,24.6814255 37.804454,24.8889681 38.7646099,24.9790525 C39.5993918,25.0566943 40.1458135,24.9382408 39.9655884,24.2872439 Z" id="Path"></path>
                        <path d="M39.5851237,11.4328007 C38.9207544,11.6078388 38.2812636,11.8777572 37.61124,12.022259 C36.9191651,12.1722137 36.8761931,12.4524927 37.1781278,13.0103242 C38.1172916,14.7345306 39.0033058,16.4860016 39.943035,18.2096627 C40.139236,18.569554 40.3727548,19.0581337 40.8946381,18.9943348 C41.522255,18.9174489 41.5493952,18.3252642 41.5929326,17.8808529 C41.7450308,16.3207787 41.8400215,14.7552517 41.9367084,13.4580072 C41.9542365,10.7195616 42.5665871,10.6470381 39.5851237,11.4328007 Z" id="Path"></path>
                        <path d="M45.5240254,49 C45.2175208,49.3321555 44.7934528,49.5927562 45.1146528,50 C46.135635,49.784894 46.2755914,49.4827739 45.5240254,49 Z" id="Path"></path>
                        <path d="M20,16 C19.1268499,15.4919268 18.089852,15.2170793 17,15 C17.852537,15.5432365 18.8403805,15.9031216 20,16 Z" id="Path"></path>
                        <path d="M20,20.3292134 C19.0625312,20.0162927 18.1140861,19.5464876 17,21 L20,20.3292134 Z" id="Path"></path>
                        <path d="M25,19.8222385 C24.0105431,19.0685615 23.1064253,18.4512967 22,18 C22.1515815,19.956377 22.6457131,20.2661462 25,19.8222385 Z" id="Path"></path>
                        <path d="M11.2030716,25.0638715 C10.8709756,25.3662077 11.0047735,25.6281217 11.1902782,25.9371027 C12.2697234,27.7367231 13.3310446,29.5479718 14.4136882,31.3453773 C14.6647591,31.7617817 14.9931237,32.1925832 15.5400426,31.90852 C18.1227152,30.5668338 21.0971865,30.1543054 23.5455281,28.6177065 C26.4773546,26.7754489 26.7252272,26.1652392 24.5961881,23.2731108 C24.0673932,22.5532626 23.3418994,21.9923348 22.7102241,21.3549923 C22.4639507,21.1058141 22.188892,20.9568609 21.8312092,21.0111264 C19.8668854,21.3660669 17.914289,21.8682994 15.9350396,22.0360794 C13.7905418,22.2182564 12.6130136,23.7786657 11.2030716,25.0638715 Z" id="Path"></path>
                        <path d="M23,17 C23.5309066,17.6072874 24.2362637,17.8198381 25,18 C24.0054945,17.0080972 24.0054945,17.0080972 23,17 Z" id="Path"></path>
                        <path d="M37,52.8446893 C36.3787879,51.8848834 35.7024242,51.8095059 35,52.2858913 C35.6727273,52.4868978 36.2545455,53.3472055 37,52.8446893 Z" id="Path"></path>
                        <path d="M30,53.5948814 C31.9274376,54.2085448 33.4580499,54.0977788 35,53.446534 C33.44161,52.9609438 31.8730159,52.6944131 30,53.5948814 Z" id="Path"></path>
                        <path d="M6.58773492,13.0298537 C5.94438437,12.8517393 5.65664108,13.5098305 5.40147251,13.9649542 C5.06486715,14.5624658 4.8791913,15.2215925 5.08821236,15.8993592 C5.23099818,16.3653561 5.39875795,16.9680454 5.96664375,16.9985941 C6.64745523,17.0348383 6.61813799,16.3622494 6.72672036,15.911268 C6.852133,15.3934936 6.91511077,14.860186 6.99817629,14.3916002 C6.9482284,13.8613993 7.17027935,13.1908815 6.58773492,13.0298537 Z" id="Path"></path>
                        <path d="M54.0907436,31.2139352 C53.8132588,31.8612543 54.2197739,32.3709495 54.6679117,33 C54.6797048,32.093875 55.9686213,32.2509854 55.9942887,31.8478572 C56.1011203,30.1628789 54.6810923,31.5726096 54.0907436,31.2139352 Z" id="Path"></path>
                        <path d="M52.0149572,22.5906126 C52.2765223,23.9468134 52.9038399,25.2489662 53.4275184,26.5571244 C53.5980567,26.9835019 54.090479,27.0515622 54.528066,26.9699899 C55.021585,26.8779084 55.0363906,26.5195912 54.9738782,26.2798789 C54.797308,24.8015701 54.6591227,23.4588814 54.4661019,22.1231988 C54.3981059,21.6532828 54.4063312,20.7720025 53.6819549,21.0547529 C53.018446,21.3154837 51.8548377,21.7593767 52.0149572,22.5906126 Z" id="Path"></path>
                        <path d="M10.3283527,39.1200891 C10.1692958,39.2759742 9.92319803,39.4335059 10.0231914,39.6936802 C10.1786216,40.1009574 10.5734143,40.0065481 10.8474895,39.9428768 C12.4665539,39.5701798 14.1058242,39.3939858 16,39.3517211 C14.2597001,37.5974655 11.8950889,37.5831943 10.3283527,39.1200891 Z" id="Path"></path>
                        <path d="M30.0878438,17.2259144 C30.0469187,17.4908983 29.8914907,17.8306077 30.1287688,17.9678694 C30.283326,18.057434 30.5946174,17.9466707 30.753093,17.7966898 C31.730069,16.8734857 31.9002997,15.5485661 32,14 C30.8279771,14.7647436 30.2976933,15.8479979 30.0878438,17.2259144 Z" id="Path"></path>
                        <path d="M19.4189863,38.9406298 C19.8610102,39.0274834 20.3389452,39.0064124 20.7920593,38.9575894 C22.681619,38.7551023 24.1560882,37.9662247 25,36.019984 C23.6300956,35.9557432 22.4196789,36.0539032 21.2039812,36.2070533 C20.4292512,36.3046994 19.6444871,36.3324515 18.9368264,36.6968256 C18.1932546,37.0791871 17.883785,37.7246791 18.0390479,38.489916 C18.2001199,39.2952393 18.9442199,38.8440116 19.4189863,38.9406298 Z" id="Path"></path>
                        <path d="M29.5609758,34.9618257 C30.8992922,35.1170902 31.1543413,34.8425826 30.925295,33.3178851 C30.8649905,32.9160606 30.7482544,32.524173 30.6281987,32 C29.8475603,32.6018052 29.5156091,33.4222229 29.1283328,34.1929559 C28.8461743,34.7500449 29.0464515,34.9022041 29.5609758,34.9618257 Z" id="Path"></path>
                        <path d="M13,40.447605 L17,42 C16.2942643,39.9181313 15.2842893,39.5758838 13,40.447605 Z" id="Path"></path>
                        <path d="M18.3823679,35.9925947 C20.1687733,35.8839087 21.9525861,35.7446094 23.7338061,35.5746968 C24.1627212,35.5333961 24.7999824,35.7589197 24.956103,35.105173 C25.1122237,34.4514264 24.8399848,33.8764771 24.3288425,33.4564054 C23.7304725,32.9635141 23.0448751,32.9042802 22.2820507,33.1151312 C20.1874782,33.6955148 18.1484647,34.4144731 16,35.3062422 C16.8489408,35.8665189 17.601209,36.0398732 18.3823679,35.9925947 Z" id="Path"></path>
                        <path d="M29.0955817,37.5394321 C29.6316326,37.1560436 30.1373894,36.7047294 31,36 L28.8681195,36 C28.3700646,36 28.1549254,36.3553038 28.104093,36.9496539 C28.0758528,37.2762199 27.8673885,37.6792023 28.134387,37.8986547 C28.5030504,38.2017079 28.8039372,37.7484343 29.0955817,37.5394321 Z" id="Path"></path>
                        <path d="M32.2750018,35 C33.3419256,34.3236791 33.2139559,33.4976517 32.0053104,32 C31.9690205,33.0561644 32.1252581,34.0154599 32.2750018,35 Z" id="Path"></path>
                        <path d="M33.9788386,25.1001011 C33.9640994,23.6822885 33.3043721,22.9477768 32.0633303,23.0028895 C31.6105416,23.0219108 31.0999752,23.0633673 31.0021068,23.5423118 C30.9272316,23.9163959 32.8704497,26.0116565 33.2672293,25.9999511 C33.9841447,25.9775159 34.0472286,25.5653894 33.9788386,25.1001011 Z" id="Path"></path>
                        <path d="M34,33 C33.9140118,31.6765513 33.3133313,31.18067 32,31 C32.5400557,31.8237232 33.0157748,32.4157057 34,33 Z" id="Path"></path>
                        <path d="M31.3726128,37.0062202 C30.9098792,36.8970066 28.8800969,38.2586909 29.0055744,38.5201064 C29.4898832,39.5291703 30.4460101,39.9573108 31.4231444,39.9985564 C32.4633014,40.0427065 31.6638794,39.0626889 32,38.6362911 C31.6746671,38.1059081 32.3253329,37.2310375 31.3726128,37.0062202 Z" id="Path"></path>
                        <path d="M31.3274061,41.0586892 C29.5283081,40.8375981 27.9282657,41.2138223 26.6483331,42.6559268 C25.9686063,43.4220944 25.5152863,44.0616226 26.9127276,44.5555157 C27.6927419,44.8320115 28.3815857,45.3681177 29.1458985,45.7163756 C30.6436273,46.3960063 31.6095281,45.8440702 31.8926632,44.1697937 C31.9686386,43.7228626 31.9504045,43.2585187 31.9848467,42.633765 C31.577112,42.290256 32.6184817,41.2175159 31.3274061,41.0586892 Z" id="Path"></path>
                        <path d="M36.9943715,39.9268492 C36.9419576,38.8879675 36.3678423,38.0300023 35.5700537,37 C35.2122982,38.1049216 35.1086892,39.0050637 35.009956,39.9129752 C34.9215837,40.7232141 35.4323147,40.9335432 36.1130863,40.9934787 C36.9901053,41.0711728 37.0205785,40.4390755 36.9943715,39.9268492 Z" id="Path"></path>
                        <path d="M34.1303705,48.2651301 C34.0772497,48.3342114 33.9885526,48.4275228 34.0012237,48.4899022 C34.2180929,49.5359169 35.1021398,49.697794 35.8394953,49.7612045 C36.5427365,49.8215218 37.7518436,50.5293474 37.9034084,49.1781376 C38.1300246,47.1505496 37.9521431,45.0868743 37.4301948,43 C36.3643676,44.8059092 35.3886996,46.6339863 34.1303705,48.2651301 Z" id="Path"></path>
                        <path d="M35.7411468,54.0996176 C35.0770589,54.1474427 34.4129711,54.186181 33.7488833,54.2392667 C31.2289254,54.4420449 28.7426827,54.8174714 26,55.5491944 C28.5373263,56.3918714 30.7742806,57.1895929 33.2492849,56.9600328 C34.6254792,56.83234 35.8892894,56.5525635 36.5952659,55.2861567 C36.7944922,54.9293819 37.1975424,54.5238257 36.8854212,54.1527034 C36.6407303,53.8619272 36.1339802,54.0704444 35.7411468,54.0996176 Z" id="Path"></path>
                        <path d="M37,35 C38.0189542,34.4041258 38.5490196,33.9739601 39,33 C38.0673203,33.470071 37.6150327,33.9814001 37,35 Z" id="Path"></path>
                        <path d="M43.1140393,49.0110924 C41.694578,49.3437667 40.3666092,50.0278751 39.2354066,51.0091855 C39.0204439,51.1958148 38.8926414,51.4963195 39.1203354,51.7230161 C39.2892697,51.8901389 39.5718061,51.9660559 39.8127211,51.9961064 C40.0844849,52.0303745 40.1554862,51.8347828 40.0903609,51.5537845 C40.0276838,51.293347 39.9410132,50.9475029 40.2318739,50.832573 C40.5628871,50.7018271 40.8282853,51.0213111 40.9448255,51.2833302 C41.367406,52.2322926 41.973121,51.9418046 42.651796,51.7050912 C43.6086005,51.3750632 43.6830295,50.4798754 43.9396137,49.6685125 C44.1447832,49.0216365 43.8167079,48.9683891 43.1140393,49.0110924 Z" id="Path"></path>
                        <path d="M39.2327374,46.0986148 C39.2327374,46.872872 39.2327374,47.6471291 39.2327374,48.4213863 C39.2327374,48.7267272 39.200778,49.0206673 39.7305456,48.9988573 C41.0706735,48.9438364 43.6339253,47.0215769 43.9231849,45.8160754 C44.2481957,44.458399 43.5207132,43.3728528 42.1410423,43.3921844 C41.1324255,43.4060636 39.851883,42.549523 39.2457379,43.3257629 C38.7582217,43.9523065 39.1466096,45.1528512 39.1466096,46.1015889 L39.2327374,46.0986148 Z" id="Path"></path>
                        <path d="M20,54.4482212 C20.9699289,54.9339567 21.8955714,55.3918133 23,54.4621607 C21.8458174,53.8482897 21.0852925,53.8482897 20,54.4482212 Z" id="Path"></path>
                        <path d="M18.8888224,45.3915184 C18.7824123,44.9188669 18.5905435,44.4641784 18.5028792,43.9881589 C18.3187292,42.9895282 17.985164,42.7206446 16.9971495,43.3061261 C14.7046472,44.6645781 12.3377129,45.8927984 10,47.1732236 C10.1995877,47.3741847 10.3815324,47.5975995 10.60152,47.7710548 C12.1011848,48.9566129 13.9272474,48.7410569 15.6480025,48.961665 C18.024861,49.2664747 19.4159105,47.7239019 18.8888224,45.3915184 Z" id="Path"></path>
                        <polygon id="Path" points="10.0026461 46.9931455 9.97406818 47.0184545 9.97406818 47.0184545 10.0259318 46.9910364 10.0174643 46.9815455"></polygon>
                        <path d="M18,54.0168102 C18.7194271,55.2563174 19.6377158,55.0562966 21,54.8339937 C19.8553066,54.362442 19.1452442,53.9059178 18,54.0168102 Z" id="Path"></path>
                        <path d="M18.9927771,50.1395224 C19.1128204,48.6708086 17.7030233,49.5049294 17.255848,49.0002066 C16.3239483,48.9830874 14.8418978,50.0338553 15.0137132,50.5799004 C15.4426829,51.9435374 16.7142311,51.8786023 17.7377278,51.9895823 C18.9774161,52.1253557 18.9307642,50.9028049 18.9927771,50.1395224 Z" id="Path"></path>
                        <path d="M44,53 L46,51.0043195 C44.9138495,50.9404577 44.3402399,51.5837321 44,53 Z" id="Path"></path>
                        <path d="M12,51.0429149 C12.8190184,51.7048988 13.7254601,51.8350025 15,52 C13.9957822,51.177505 13.1566334,50.8799114 12,51.0429149 Z" id="Path"></path>
                        <path d="M55.3225917,37 C55.7233729,36.3981136 56.2905562,35.809388 55.8253385,35 C54.715047,35.6988375 54.9175619,36.3459092 55.3225917,37 Z" id="Path"></path>
                        <path d="M54.1800587,39 C55.3447334,38.2648148 55.0019019,37.7388889 54.7514445,37 C53.9029365,37.6722222 53.8686534,38.1837963 54.1800587,39 Z" id="Path"></path>
                        <path d="M53,42 C53.6491702,41.5656712 54.0932678,40.9852131 53.983262,40 L53,42 Z" id="Path"></path>
                        <path d="M45.8026338,42.9975116 C46.595625,43.0290669 47.2652501,42.760579 47.8039669,42.188304 C48.191843,41.77648 47.9284105,41.410117 47.6639005,41.0827972 C46.9096969,40.1489728 46.137177,39.2290541 45.1206183,38 C44.8760408,39.6376691 45.0586658,40.8629794 45.1847256,42.0824064 C45.2229745,42.4498391 45.1728738,42.9723742 45.8026338,42.9975116 Z" id="Path"></path>
                        <path d="M48.6738078,40 L49,39.9465389 C48.8481414,38.8773162 48.7217951,37.8012895 48.5255939,36.7354689 C48.473962,36.453583 48.5511061,35.9641706 47.9230191,36.0020794 C47.2250772,36.0443623 46.6322213,36.3189581 46.1614598,36.7505352 C45.827371,37.0581798 46.0800636,37.2778564 46.3060292,37.5140574 C47.0981234,38.3409229 47.887383,39.1695704 48.6738078,40 Z" id="Path"></path>
                        <path d="M51,45 C51.8531034,44.57179 52.4172414,43.9304238 53,43 C51.4993103,43.2567995 51.2606897,44.1385199 51,45 Z" id="Path"></path>
                        <path d="M49,44.2634429 C47.7406278,44.1857122 46.872336,43.719328 46.0628227,44.2507694 C45.8381842,44.3982043 46.2711662,44.60098 46.4952227,44.7408108 C47.4176372,45.3161869 48.0071677,44.8337496 49,44.2634429 Z" id="Path"></path>
                        <path d="M47.6247499,46.2325865 C47.1785003,46.036106 46.7910968,45.7438077 46.4718567,46.4344499 C46.1011262,47.2311377 45.8343572,48.0245957 46.1202512,49 C47.0029427,48.7238508 47.4178078,47.9852996 47.8047209,47.2160653 C47.9954804,46.8360237 48.1945763,46.4834355 47.6247499,46.2325865 Z" id="Path"></path>
                        <path d="M48.6582006,45.0006586 C48.3555694,44.9850805 48.0930779,45.2485729 48.017024,45.5027184 C47.9082246,45.867691 48.3476472,45.8708066 48.5768652,45.9981019 C48.9914645,46.0239171 49.0041402,45.7817889 48.9993868,45.5530134 C48.9946334,45.3242379 48.9085447,45.0135662 48.6582006,45.0006586 Z" id="Path"></path>
                        <path d="M50.5670937,44.0509815 C50.1138836,43.8847566 50.0455326,44.158268 50.0264436,44.3940218 C50.0085861,44.6113574 49.9032886,44.9028265 50.2899951,44.9852483 C50.6551495,45.0639864 50.8170982,44.8116561 50.9802785,44.6044505 C51.0695658,44.3295579 50.842345,44.152282 50.5670937,44.0509815 Z" id="Path"></path>
                        <path d="M53.9456436,34.5404223 C53.8432923,34.0366726 53.7031049,33.8642965 53.1850423,34.1117977 C52.1028346,34.6314986 50.9444698,34.9026693 49.7681571,35.0704144 C49.215654,35.1491414 48.8993835,35.3966425 49.0288992,36.051157 C49.3810654,37.4234763 49.1521088,38.9270072 49.8317023,40.2329488 C50.2173388,40.9739086 50.5942439,41.4164262 51.2631656,40.4269362 C52.0766404,39.2249347 52.9541454,38.070787 53.5711639,36.7360303 C53.8869492,36.0521861 54.1071744,35.335925 53.9456436,34.5404223 Z" id="Path"></path>
                        <path d="M42.0385097,17.931972 C41.8529076,19.4026499 42.3177292,19.9649224 43.8803785,19.8452461 C44.6728611,19.7848921 45.4833051,19.9411935 46.2855849,20 L46.2855849,19.929329 C46.9964243,19.929329 47.7116181,19.9773028 48.4164704,19.919528 C50.0085112,19.7890188 51.1558692,19.0312405 51.8367729,17.6394871 C52.0348935,17.2340318 52.0969423,16.8977 51.7676484,16.5278382 C50.2719464,14.8466949 48.828496,13.1144828 46.9147812,11.8243511 C45.9062165,11.1444656 44.7708328,10.9474123 43.5434646,11.0113773 C42.718869,11.0531608 42.3863094,11.3518359 42.3639936,12.1550086 C42.3133749,14.0827265 42.2801733,16.0207612 42.0385097,17.931972 Z" id="Path"></path>
                        <path d="M45,8 C44.6283619,7.4757536 44.1045232,7.12625601 43,7 C43.6167482,7.63171691 44.3117359,7.8112713 45,8 Z" id="Path"></path>
                        <path d="M43,8 L43,10 C44.4710385,9.30114723 44.1881465,8.74760994 43,8 Z" id="Path"></path>
                        <path d="M42.7590117,4.9890143 C42.9011732,4.97393325 43.0855093,4.81159019 42.9561424,4.64481153 C42.5533514,4.13205587 41.9325795,4.05620706 41.3155985,4.00031847 C41.2530475,3.99455218 41.1824406,4.06773963 41,4.16709713 C41.4748194,4.70957133 41.9932351,5.06841159 42.7590117,4.9890143 Z" id="Path"></path>
                        <path d="M37,3 C38.3705791,3.93783881 39.6227071,5.06920853 41,6 C40.2686728,3.96006505 38.7053111,3.35778822 37,3 Z" id="Path"></path>
                        <path d="M52.3187676,19.7711062 C52.7314927,20.1022614 53.5273707,20.0668488 53.8083067,19.7117662 C54.4351088,18.9178551 53.3814383,18.5914853 52.704492,18 C52.4306277,18.6704458 51.5248182,19.1336802 52.3187676,19.7711062 Z" id="Path"></path>
                        <path d="M48.9759689,30.9864016 C49.2594379,30.9544413 49.4068418,30.9522745 49.5491432,30.9192307 C50.5509226,30.6884662 51.561206,30.4858701 52.5505127,30.2079777 C54.1379389,29.7664916 54.3528084,29.1608702 53.5290476,27.8147438 C53.2172317,27.3039201 52.5250005,27.3987177 52.2250903,26.9572316 C51.6927356,26.1663485 53.2455786,26.6495456 52.9241248,25.9512933 C52.867431,25.8245354 52.8645963,25.675026 52.8181074,25.5417676 C52.4739761,24.5634561 52.091293,23.5965203 51.789682,22.6062913 C51.5736786,21.8966634 51.222744,21.8934132 50.5991123,22.1729307 C49.6645321,22.5888596 48.7085947,22.9594924 47.7349418,23.2834172 C47.1918152,23.4670538 46.8703614,23.6837341 47.0500807,24.2904389 C47.6255228,26.2367696 47.9373386,28.2329368 48.2746667,30.2242287 C48.3529041,30.6494638 48.4770635,31.0828243 48.9759689,30.9864016 Z" id="Path"></path>
                        <path d="M51,21 C50.1688534,21.0867883 49.508842,21.4250967 49,22 C49.7741015,21.8391376 50.4997148,21.6042012 51,21 Z" id="Path"></path>
                        <path d="M48.4229273,10.2775628 C49.5507855,11.7931229 50.6992899,13.288972 52,15 C51.5472242,12.7003784 50.3732722,11.1191148 49.472522,9.38180539 C49.1585079,8.77623836 48.6639595,9.00455794 48.2664003,9.29146311 C47.6758232,9.71689311 48.2227072,10.0098211 48.4229273,10.2775628 Z" id="Path"></path>
                        <path d="M35,1.96720765 C34.0514706,1.51185415 33.1640756,1.27999217 32,1 C33.1212185,2.05091233 33.1212185,2.05091233 35,1.96720765 Z" id="Path"></path>
                        <path d="M50,13 C49.6019566,12.2921424 48.8859676,11.567495 48,11 L50,13 Z" id="Path"></path>
                        <path d="M6.01269742,38.5692034 C6.01269742,39.1514715 5.85637342,39.9832831 6.64073593,39.9995821 C7.25734725,40.0125089 7.69980815,39.7281193 7.86116011,38.7861488 C8.19757666,36.8229611 7.84516204,34.9289036 7.6198178,33 C6.75683621,34.7423081 6.01955373,36.5082216 6.01269742,38.5692034 Z" id="Path"></path>
                        <path d="M9.27204073,26.5138446 C10.2987243,25.1497812 10.2508223,24.6193122 9.05574087,23.3710258 C8.48387958,22.7721431 8.20881332,22.9084441 8.07202094,23.7062528 C7.84535054,25.0245316 8.23251741,26.3080773 8.1623928,28 C8.69227808,27.2906029 8.9806779,26.9011712 9.27204073,26.5138446 Z" id="Path"></path>
                        <path d="M10.4381681,37.6112689 C11.3115927,36.9224948 12.2475881,36.3127189 13.2345468,35.7895029 C14.0482052,35.3601729 14.1715194,34.8374189 13.8004998,34.1167953 C12.8769894,32.3259957 11.7456219,30.6622106 10.5727906,29 C7.98803858,31.4069775 7.36339017,34.0742822 8.64230395,37.0916641 C9.00632319,37.9513738 9.49419514,38.3534115 10.4381681,37.6112689 Z" id="Path"></path>
                        <path d="M33.8600402,7.63579484 C34.2403014,7.12123003 34.2403014,6.52544573 35.1552731,6.17698789 C34.3259366,8.26773492 34.979415,9.85072911 36.0422094,11.3807996 C36.4148246,11.9168483 36.704863,12.126971 37.3287768,11.9236603 C38.3849447,11.5778224 39.46507,11.313204 40.5273546,10.9878021 C41.0304616,10.833747 41.8852847,11.0297218 41.8078052,10.1494073 C41.7155435,9.10141375 42.5489578,7.91560911 41.3255973,7.00175877 C39.6011688,5.71325076 37.8675651,4.44517862 36.0371121,3.31806161 C35.4692689,2.96855578 34.9034647,2.94078395 34.3172712,3.07335513 C34.1643511,3.52608832 34.8489232,3.55595614 34.6740846,4.00344936 C34.3115309,4.03150251 33.9529081,3.91093997 33.6765361,3.66809144 C33.2060521,3.26828192 32.7590158,3.12889879 32.2839441,3.64451159 C31.8170282,4.15016845 32,4.64377339 32.3038237,5.13475835 C32.7967361,5.93175741 33.292197,6.72456449 33.8600402,7.63579484 Z" id="Path"></path>
                        <polygon id="Path" points="10.0216981 46.9810182 10.0153474 46.9810182 9.97830195 47.0189818 10.0068799 46.9936727"></polygon>
                        <path d="M17,42.7684417 C15.188823,41.9724008 13.2821129,41.3919479 11.3227256,41.0401293 C10.0701464,40.8145665 9.29718908,41.5589238 9.22372403,42.7945067 C9.17439749,43.6205679 9.18121925,44.4561528 9.04373464,45.2691814 C8.86059676,46.3508804 9.24104079,46.9323312 10.4044124,47 C12.2483853,45.1799588 14.7991969,44.3483839 17,42.7684417 Z" id="Path"></path>
                        <path d="M11.1717388,23.623438 C11.9658738,23.0518213 11.9631164,21.9091236 12.9607485,21.5962613 C14.2440486,21.196076 15.1914958,20.3362402 16.0915154,19.4314037 C17.3472414,18.1692397 17.3257335,16.8733252 15.8736798,15.8645584 C13.6456899,14.3173897 11.2489464,13.0402255 8.66469879,12.1032455 C7.87497566,11.8166336 7.63287479,12.1568178 7.42441435,12.7530778 C7.06539916,13.7848808 7.00087569,14.8515057 7.00197865,15.5699106 C6.95730856,18.8072861 7.66375781,20.7096393 9.65405863,23.4364706 C10.1702464,24.1436252 10.4233769,24.1613041 11.1717388,23.623438 Z" id="Path"></path>
                        <path d="M23.1017458,2.87545424 C23.6868461,2.68203919 24.3277244,2.58598657 24.9054255,2.38209305 C25.4205186,2.20046628 26.207672,1.97867205 25.9492717,1.46522714 C25.6629824,0.903319312 24.8291576,0.954838444 24.1376237,1.08538269 C23.6908302,1.16964703 23.3914501,1.42986231 23.1011767,1.69662663 C22.939408,1.82491608 22.7576076,1.93739187 22.559902,2.03150099 C21.8769056,1.4128348 22.0783895,2.03674023 22.027734,2.19348064 C21.8962572,2.95797217 22.2286487,3.1636121 23.1017458,2.87545424 Z" id="Path"></path>
                        <path d="M13.6748966,12.4182718 C16.0899345,12.9525961 18.2187646,14.2939671 20.3619823,15.5341926 C21.9780023,16.4688629 22.7903799,16.010795 22.970737,14.0344836 C23.0293145,13.3990137 23.0072195,12.7540117 22.837653,12.1164236 C22.1660669,9.58937165 21.2874042,7.11845286 20.8434483,4.53103125 C20.695463,3.66679218 20.2217045,4.09043878 19.8712671,4.20429381 C17.3925134,5.00922235 15.0103612,6.04292005 12.7931509,7.45789969 C11.338476,8.38621531 10.0071222,9.44639092 9,11.0483046 C9.29597059,11.1844011 9.456288,11.2601279 9.61660541,11.3321478 C10.9140459,11.9247235 12.3003804,12.1143054 13.6748966,12.4182718 Z" id="Path"></path>
                        <path d="M25.6830146,3.24254907 C25.2850032,3.35319504 24.8922564,3.41132242 25.0270328,4.01605108 C25.5419206,6.35695269 25.9167674,8.73660588 27.0176166,10.913833 C27.8073219,12.475114 28.926071,13.0895305 30.5149581,12.9895922 C31.681616,12.9156583 32.3049567,12.5964676 31.8374512,11.2727951 C31.4852426,10.2749418 31.3825809,9.19499633 31.1662017,8.15227278 C31.0772282,7.7239658 30.9029666,7.28546104 31.3852133,6.89080675 C32.2044009,7.62963629 31.9822305,8.80544093 32.6640094,9.71763282 C33.2957736,8.51531394 32.971468,7.57609792 32.2317774,6.67614337 C31.8911511,6.26211329 31.6526602,5.77261959 31.3509927,5.3259566 C29.9716408,3.2695732 28.0958275,2.58173259 25.6830146,3.24254907 Z" id="Path"></path>
                        <path d="M6.35379137,7.99342695 L6.35379137,8 C6.94386259,6.49895429 8.10892333,5.33193905 9,4 C7.59991621,4.80609501 6.67804776,5.97191515 6,7.33193905 L6,7.33193905 C6.29597822,7.46997311 6.27838291,7.75321183 6.35379137,7.99342695 Z" id="Path" fill="#AFA697" fill-rule="nonzero"></path>
                        <path d="M12,3 C13.345233,2.73537415 14.7414648,2.75578231 16,2 C14.6179346,2.06190476 13.2239694,2.04965986 12,3 Z" id="Path" fill="#AFA697" fill-rule="nonzero"></path>
                        <path d="M2.25622543,44.0205448 C2.17190679,44.0064265 2.08603946,43.9995491 2,44 C2,44 2,44.0032632 2,44.0043433 C2.07601573,45.2016339 2.98296199,46.0381712 3.59895151,47 L4,46.8325845 L2.25950197,44.0210849 L2.25622543,44.0205448 Z" id="Path" fill="#AFA697" fill-rule="nonzero"></path>
                        <path d="M56.9943655,27.422733 C56.9384603,24.1472992 55.311059,21.2497785 54.9342578,18.0625056 L54.9342578,18.0625056 C54.5541022,16.7709751 54.0353017,15.5417749 53.2218806,14.4563277 L53.2218806,14.461943 L53.2218806,14.4563277 C51.3490553,12.7464535 50.286856,10.4132755 48.7885958,8.32548822 C47.7448451,10.0179548 46.7145117,10.1701308 45.4689432,8.939246 C44.8109387,8.28786537 44.1652332,7.61851561 43.5776693,6.90705073 C43.1863327,6.43311517 42.6518787,5.90864145 42.8699091,5.23648402 C43.0879394,4.56432659 43.8829118,5.23648402 44.547066,4.74514087 C40.8668246,3.22899629 37.1116703,2.54504662 33.8339467,0.606627699 C34.2286376,1.36526152 35.1717588,1.31303877 35.5843394,2.03573435 C35.0141061,2.56582342 34.4746206,2.34963243 33.9832136,1.99867304 C33.0272342,1.31528491 31.5781706,1.40400744 31.0275041,0.0956308221 C28.8583812,0.33877549 26.6898173,-0.234551775 24.516781,0.118092223 C22.8614271,0.387067502 22.315792,0.866056883 22.2682726,2.60120012 C22.2447924,3.46371793 21.9121563,3.76750838 21.150168,3.9954916 C18.8154568,4.68890018 16.5701316,5.65596744 14.4605481,6.87672784 C13.3239948,7.53540843 12.2030949,8.22441191 11.0452976,8.84210044 C10.7048347,9.02347626 10.1603178,9.53278853 9.95235033,8.64219397 L9.95235033,8.63601709 C9.88526405,8.41140307 9.90035846,8.1424278 9.63928104,8.01439781 L9.63648577,8.01439781 C9.35695962,8.5287639 9.05563043,9.03246082 8.80182068,9.55918068 C8.27631152,10.6519278 7.69936954,11.5245533 6.22403051,11.4251616 C5.42346761,11.3690081 4.61395987,11.8131823 4.11975764,12.906491 C5.12605178,12.3545021 5.97301602,12.1736878 7.00614468,12.4757936 C6.39118715,13.4304032 5.78852876,14.1794909 4.95330462,14.7050877 C4.65532974,14.8932019 4.29641816,15.2447228 3.9771993,14.6888032 C3.81451508,14.4046664 3.66580716,13.9756537 3.23589594,14.2429444 C2.81604766,14.5029351 2.70870962,14.9493554 2.95077927,15.4013911 C3.36112366,16.1678864 3.18446313,16.922028 2.94071633,17.6728003 C2.62429272,18.6431328 2.28438892,19.6100962 1.95678427,20.5787441 C1.9506347,20.593344 1.94560322,20.6068208 1.94057175,20.6208592 C0.324910594,24.0900226 -0.266007691,27.7304542 0.108557353,31.5371002 C0.167816897,27.8523073 0.918065089,24.3073367 2.22792464,20.8741115 L2.22792464,20.8741115 C2.51471847,20.36873 2.75622907,19.8268487 3.09725097,19.3579669 C4.06441146,18.0321827 4.88286403,18.045098 5.80530033,19.3983975 C6.41131303,20.2878689 6.88706654,21.2413554 7.01844383,22.340841 C7.27933491,24.5158534 7.55289784,26.6889939 7.83913262,28.8602627 C7.97777759,29.9086486 7.75862908,30.8256353 7.28567083,31.7970909 C5.48608147,35.4824453 4.69614056,39.4199289 4.69614056,43.5191347 L4.69614056,43.5191347 L4.69614056,43.5191347 C4.7693573,43.5186364 4.84242712,43.5257876 4.91417096,43.540473 C5.00809175,43.1445908 4.78223462,42.6953628 5.07405992,42.3393496 C5.52130176,42.3258727 5.37706627,42.9828687 5.8209538,43.0221762 C5.84722926,40.663729 6.00096864,40.3829615 7.4723943,40.1055632 C6.55554853,41.9125829 6.08762175,43.7358872 6.65841415,45.8545588 C7.68651134,44.3889524 7.29405662,42.5330791 8.72690767,41.2275102 C9.22334612,42.795316 9.00643383,44.2036459 8.99581183,45.5917605 C8.6480813,46.5525469 9.01481961,47.1971891 9.89029552,47.6003713 C10.3173962,47.8028735 10.6874746,48.1091677 10.9670303,48.4915273 L11.028526,48.4915273 C11.1749977,48.4915273 11.3253828,48.4656967 11.466264,48.4915273 C12.3121101,48.6425803 13.3821362,49.0710315 13.1730507,49.8751497 C12.9494297,50.7258752 11.90512,50.0520332 11.2325801,49.94478 C10.6623468,49.8538113 10.1116802,49.6415511 9.55262793,49.4826367 C9.46877008,49.1726693 8.85604876,49.047447 9.23788148,48.574073 L9.26080263,48.574073 C9.2487007,48.531583 9.24120319,48.4879043 9.23844053,48.4437969 C8.93934755,48.4067356 8.64304983,48.373605 8.72970294,48.8368714 C8.38868103,49.6651356 9.06178,50.1171713 9.47436061,50.5736992 C11.4282484,52.7311168 13.9764088,54.0759932 16.4272941,55.5500227 L16.4272941,55.5500227 C17.8875387,56.3401025 19.3684683,57.0605519 21.0959399,57.0184368 C21.0450661,56.4872246 20.1701493,56.5944778 20.3132667,55.9447818 C22.1877691,55.7488061 24.0158701,55.7858674 25.7232158,56.669162 C26.6026051,57.1245669 27.8615909,56.8174072 28.3775962,58 C31.7386186,57.6945249 35.5988748,58.5789426 37.2665278,54.2377153 C37.4448655,53.7744489 37.845706,53.7250338 38.2392788,53.8446408 C38.6943474,53.9850245 39.2226518,54.1602235 39.3808636,54.6386513 C39.6357915,55.4102004 39.6234923,55.5090306 40.2239145,55.1956941 C42.1805976,54.176508 44.2172251,53.286475 45.8524531,51.7400075 C45.8602798,51.7181076 45.8692247,51.6967693 45.8781695,51.6748694 C45.840713,51.6962078 45.8038155,51.7175461 45.766359,51.7400075 C45.4980139,50.9802506 45.9083583,50.5720146 46.493127,50.1924169 C47.0175181,49.8521267 46.9655262,50.5231611 47.2551153,50.561907 L47.2551153,50.561907 C47.283627,50.561907 47.3110206,50.561907 47.3406503,50.561907 C48.3469445,49.5079057 49.4259154,48.5117426 50.351706,47.3892341 C55.128808,41.6031771 57.1207113,34.876549 56.9943655,27.422733 Z M7.45450463,15.4058834 C7.37176489,15.9140726 7.30691482,16.4913306 7.17497848,17.0539887 C7.06316802,17.5408396 7.09279779,18.2702736 6.39230525,18.2332123 C5.80753654,18.2000817 5.63478938,17.5442088 5.48775862,17.0410734 C5.27252349,16.3060241 5.46371937,15.59119 5.8103318,14.9431785 C6.07476354,14.4495892 6.36938411,13.7358782 7.03353825,13.9290463 C7.63563758,14.1036837 7.40698518,14.8308715 7.45450463,15.4081295 L7.45450463,15.4058834 Z M55.7146948,30.3988687 C55.6940099,30.7706049 54.6524954,30.6234827 54.6457868,31.461293 C54.284639,30.8795427 53.9564753,30.4112225 54.1806553,29.8143107 C54.6564088,30.1484241 55.8007888,28.8484705 55.7146948,30.3994302 L55.7146948,30.3988687 Z M54.5664014,23.2926429 C54.7631878,24.7913799 54.9018327,26.2979784 55.0840838,27.9567528 C55.1478158,28.2229205 55.1321623,28.6277872 54.6295743,28.7311097 C54.1823324,28.8226399 53.6791854,28.7462711 53.5075563,28.2678433 C52.9736613,26.7999907 52.3335465,25.3388765 52.0674376,23.8171166 C51.9041943,22.8844069 53.0905033,22.3863254 53.7669566,22.0937656 C54.5077009,21.7742522 54.4970789,22.7653615 54.5664014,23.2926429 Z M33.5633653,53.1533912 C32.0449793,53.8946174 30.5327428,54.0204012 28.632524,53.3218517 C30.4796328,52.300981 32.0265306,52.6036484 33.5633653,53.1533912 Z M33.5225545,52.2105738 C34.1704961,51.9444062 34.7943985,51.9859598 35.3674271,52.5227873 C34.6797928,52.8035548 34.1431026,52.3228809 33.5225545,52.2105738 L33.5225545,52.2105738 Z M21.5470951,21.4199236 L18.1855136,21.8640978 C19.4338774,20.9016267 20.4966358,21.2127171 21.5470951,21.4199236 Z M17.569438,15.7355045 C18.7222038,16.0724255 19.8190644,16.505369 20.7426188,17.3005026 C19.5143809,17.1488881 18.4695122,16.5856685 17.569438,15.7355045 Z M23.4243928,22.148796 C23.7995168,22.0926425 24.0879878,22.2448185 24.34627,22.4975093 C25.008747,23.1438361 25.7696172,23.7137942 26.3241971,24.4426666 C28.557052,27.3755641 28.2993288,27.9943757 25.222305,29.8626027 C22.6568139,31.4208624 19.5373021,31.839206 16.8275756,33.1998054 C16.2539879,33.4878729 15.9096117,33.0509986 15.646298,32.6287243 C14.5108628,30.8059816 13.3977897,28.9692005 12.2657088,27.1442117 C12.0711586,26.8308751 11.9302774,26.565269 12.279126,26.2586709 C13.7578194,24.9553481 14.9927659,23.3729424 17.2418333,23.1881974 C19.3187126,23.0180523 21.3665212,22.50874 23.4243928,22.148796 Z M26.4102911,20.73822 C24.2048298,21.1767789 23.7419345,20.8707423 23.5999352,18.9379387 C24.6386544,19.3837976 25.4856186,19.9936246 26.4125273,20.73822 L26.4102911,20.73822 Z M24.6308276,18.1939048 C25.4492802,18.1983971 25.4492802,18.1983971 26.2587879,19.0260997 C25.6382399,18.878416 25.0629751,18.6992864 24.6308276,18.1939048 Z M31.175653,29.730642 C32.362521,29.915387 32.9053608,30.4224532 32.9830691,31.7757526 C32.0947349,31.1782793 31.6648237,30.5729446 31.175653,29.730642 Z M30.9934019,34.0353695 C30.7742534,33.0936753 30.5461601,32.1744425 30.598711,31.1659255 C32.3692296,32.5984014 32.554835,33.3884812 30.9934019,34.0353695 Z M32.2954347,28.216182 C31.9191925,28.2296589 30.0765561,25.8173044 30.1475558,25.386607 C30.2375632,24.8351796 30.7217025,24.7874491 31.1538499,24.7655493 C32.3278598,24.704342 32.9562345,25.5516983 32.9702108,27.1801499 C33.0322657,27.7181005 32.9724471,28.1925976 32.2954347,28.216182 Z M29.8037386,39.5945663 C28.8416096,39.5546973 27.9001655,39.140846 27.4232939,38.1654597 C27.2997433,37.9127689 29.2983553,36.5965308 29.7539829,36.7020994 C30.6943089,36.9194135 30.0513988,37.7650852 30.3689405,38.2777667 C30.0407768,38.6899334 30.8279224,39.637243 29.8037386,39.5945663 Z M30.3326021,42.257927 C30.2945865,42.9227845 30.3147124,43.4169353 30.2308546,43.8925555 C29.9183443,45.6743061 28.8522316,46.2616717 27.1991139,45.5384146 C26.3605355,45.1706092 25.5951929,44.6000896 24.7342523,44.3030376 C23.191827,43.7757562 23.6921788,43.0951757 24.442427,42.2815115 C25.8551522,40.7468362 27.6211984,40.3464617 29.6069522,40.5817449 C31.0319765,40.75189 29.882565,41.8934907 30.3326021,42.257927 Z M26.9989732,35.9035966 C27.0548784,35.3925997 27.2885623,35.0876862 27.830843,35.0871247 L30.1520282,35.0871247 C29.2128203,35.693021 28.6621538,36.0810417 28.0785032,36.4106627 C27.7609615,36.5903539 27.4333568,36.9800592 27.0319573,36.719507 C26.7412501,36.5308312 26.9682253,36.1849256 26.9989732,35.9035966 Z M28.974105,19.3613362 C28.7706099,19.5202506 28.3708875,19.6376114 28.172424,19.542712 C27.8677405,19.3961513 28.0673221,19.0373304 28.1198731,18.7565629 C28.3898953,17.2965718 29.070262,16.1487942 30.5752308,15.3396223 C30.4472078,16.9793046 30.2286183,18.3831421 28.974105,19.3613362 Z M29.3564968,31.4775775 C29.4778111,31.951513 29.5957711,32.3058417 29.6567078,32.6691548 C29.8881555,34.0477233 29.6304324,34.2976064 28.2780849,34.155538 C27.7581662,34.0993845 27.5557893,33.9640546 27.8386697,33.4603577 C28.2322426,32.7634927 28.567674,32.0217049 29.3564968,31.4775775 L29.3564968,31.4775775 Z M17.1887234,38.4782347 C15.1448281,38.5220344 13.3759866,38.7028487 11.6289482,39.0830079 C11.3332095,39.148146 10.9083298,39.24473 10.739496,38.828071 C10.6315989,38.5619034 10.8971487,38.4007429 11.0687778,38.2412669 C12.759911,36.6684073 15.3114257,36.6830072 17.1887234,38.4782347 Z M18.5572834,41.3235327 L14.0736839,39.7265271 C16.6341435,38.8297556 17.7662244,39.1818381 18.5572834,41.3235327 Z M17.4033994,33.9887621 C19.5669319,33.0672832 21.6169767,32.3243723 23.7246038,31.726899 C24.4921827,31.5090234 25.1820532,31.5702308 25.7841525,32.079543 C26.2984806,32.5136096 26.569621,33.1110829 26.4153226,33.7832403 C26.2610241,34.4553977 25.618114,34.2257299 25.1854075,34.2684066 C23.3938312,34.4469747 21.5989006,34.5909149 19.8006157,34.700227 C19.0157063,34.7468344 18.2587495,34.5677048 17.4033994,33.9887621 Z M19.5523965,36.0664417 C20.3015266,35.6683134 21.1322783,35.6379905 21.952408,35.5312989 C23.2382283,35.3628384 24.5206943,35.2567082 25.970876,35.3269001 C25.0763923,37.4534333 23.5166364,38.3153895 21.5163472,38.5366343 C21.0361213,38.5927878 20.530179,38.6130031 20.0628112,38.5181037 C19.5596642,38.4153428 18.7725185,38.9083705 18.6008895,38.0256375 C18.4376462,37.1889503 18.7652508,36.4847853 19.5523965,36.0670033 L19.5523965,36.0664417 Z M21.7360548,39.7428116 C19.450649,41.4100091 19.4103972,41.4049553 19.0185015,39.3823061 C20.0141737,39.4569903 20.8868543,39.2340608 21.7360548,39.7433731 L21.7360548,39.7428116 Z M20.0544255,41.9468366 C20.4966358,41.320725 21.1127115,41.1292416 21.6756771,40.8928353 C22.0519193,40.735044 22.4482874,40.0645712 22.8966474,40.7058442 C23.3450073,41.3471172 23.3265586,42.0889049 22.9262772,42.7666777 C22.4706495,43.5382268 22.01614,42.8531541 21.5962917,42.6959243 C21.0763731,42.499387 20.5888795,42.2101965 20.0544255,41.9468366 Z M18.7842586,48.9250324 C18.9983757,48.4404277 19.4819559,48.2910593 19.9694495,47.9372923 C20.2439442,49.3680835 20.2439442,49.3680835 18.7842586,48.9250324 Z M20.9321376,45.5883912 C20.5441553,44.8842263 20.434022,44.1531077 20.2970542,43.2389287 C22.4320749,43.8992939 22.4522008,43.9852087 20.9293423,45.5883912 L20.9321376,45.5883912 Z M21.0847589,52.4806722 C20.0997087,52.3049117 21.0126411,51.5356087 20.9729484,51.0431425 C20.9332557,50.5506763 21.0165545,50.0391179 21.7835742,50.2384628 C23.4115346,50.6624218 25.1071402,50.8381822 26.9016981,51.6423004 C24.9288025,52.7232553 22.999513,52.821524 21.0819636,52.4806722 L21.0847589,52.4806722 Z M23.6396279,52.9669615 C22.5668065,53.951894 21.5923784,53.0854454 20.5799346,52.9669615 L23.6396279,52.9669615 Z M26.7144156,50.6803909 C25.3240525,50.6146913 23.6172658,49.993072 21.8584872,49.6393049 C21.1770025,49.5017289 20.7990831,47.3684573 21.267569,46.5817467 C21.3167656,46.4992011 21.396151,46.4357476 21.4537334,46.3571327 C22.9469621,44.3243759 22.9547888,44.3092144 25.169195,45.5148302 C26.5707391,46.2785178 28.0908023,46.9338292 28.5933904,48.6880646 C29.0115615,50.1649017 28.6096029,50.7208214 26.7093841,50.6803909 L26.7144156,50.6803909 Z M32.2490334,51.2857257 C31.6704142,51.2514655 31.7140203,50.7079061 31.6955716,50.2940548 C31.6832724,50.0132873 31.7173746,49.6567125 32.1556716,49.7746349 C32.5514807,49.8818881 32.81144,50.1559172 32.886353,50.5091227 C32.7980227,50.9493662 32.5928505,51.307064 32.24512,51.2857257 L32.2490334,51.2857257 Z M31.6200995,47.2044891 C30.8033241,45.0706559 31.2287629,43.172106 31.4630058,41.2825406 C31.5267378,40.7659284 31.9627986,40.9484273 32.2725136,40.9832425 C32.768393,41.039396 33.0551868,41.2752407 33.0031949,41.8440757 C32.8511754,43.6976979 32.3819597,45.5110895 31.6161862,47.2044891 L31.6200995,47.2044891 Z M32.3535762,40.0078561 C31.9186335,39.9820255 31.4590925,39.9797794 31.411573,39.3553524 C31.3601402,38.6787027 31.2796367,38.0042991 31.208637,37.2978881 C31.3159751,36.9188519 30.8927725,36.2798251 31.6788,36.1692027 C32.308852,36.0804801 32.8242982,36.3000403 33.1239502,36.8991982 C33.5633653,37.7796851 33.4196889,38.6961103 33.2648314,39.6074816 C33.1608477,40.1993396 32.7113696,40.029756 32.3496628,40.0078561 L32.3535762,40.0078561 Z M32.3133244,15.1649849 C32.3373636,14.045284 33.3755238,14.4057895 33.9200407,14.0542686 C34.479093,13.6954477 34.8704296,13.8566083 35.1745541,14.4872121 C36.0589748,16.3256778 36.9830883,18.1444897 37.9139104,19.9588094 C38.3113966,20.7314816 38.0341066,20.9229651 37.3369684,20.801112 C34.6473678,20.5663903 32.2518286,17.8508069 32.3133244,15.1649849 Z M32.1232466,13.5017181 C32.362521,12.474109 32.5632208,11.6132758 32.779574,10.6873045 C34.5813996,12.6010159 34.5294077,12.8761681 32.1204513,13.5017181 L32.1232466,13.5017181 Z M42.1185428,25.8420119 C41.8501976,25.9414036 41.7411824,25.6218902 41.7059622,25.369761 C41.67186,25.1288624 41.6455845,24.8868408 41.6064508,24.6465038 C41.1793349,22.0235737 41.1787758,22.0241353 43.8426601,22.0488428 C44.7091911,22.1308269 45.5880214,22.148796 46.438899,22.3122027 C47.3540676,22.4879632 47.5038936,23.0539905 46.952668,23.8008321 C45.7439969,25.4377067 43.7588022,25.234431 42.1185428,25.8420119 Z M43.4848666,26.6652223 C43.0896166,27.045943 42.7972323,27.6057935 42.1397867,27.4873096 C42.0917082,27.478325 42.0190314,27.310426 42.0413935,27.245288 C42.2851403,26.5231539 43.0007273,26.8707441 43.4848666,26.6652223 Z M42.2152588,31.8953595 C41.479546,31.4461315 40.571645,31.1552564 40.6146921,30.1276473 C40.6230778,29.9266177 41.2531298,29.5211894 41.3850661,29.5947505 C42.2963214,30.1012551 41.918402,31.1125797 42.2152588,31.8953595 Z M41.4599791,33.6361181 C41.0088239,34.0786077 40.5587868,33.8045786 40.239568,33.3508583 C39.9443883,32.9325147 39.8482313,32.4664407 40.0316005,31.7156683 C40.4732518,32.1334504 40.8142737,32.4046718 41.0870913,32.7264314 C41.3034445,32.9875452 41.9100162,33.1986823 41.4599791,33.6394873 L41.4599791,33.6361181 Z M40.8321634,14.6450034 C40.7365655,15.9808953 40.6426447,17.5930623 40.4922596,19.1996141 C40.4492126,19.6572651 40.4223781,20.2665306 39.80183,20.3462686 C39.2858247,20.4119682 39.0549361,19.9088328 38.860945,19.5382197 C37.9318,17.7632075 37.0557651,15.9595569 36.1271792,14.1839832 C35.8269681,13.6095328 35.8711333,13.3209038 36.5554133,13.1664817 C37.2178903,13.0176749 37.8501784,12.7397151 38.5070649,12.5594623 C41.4549477,11.7502904 40.849494,11.8249745 40.8321634,14.6450034 Z M35.1857351,25.5202524 C33.923395,24.953102 33.8015216,24.439859 34.6479268,23.3072428 C34.7938685,23.1125891 34.9590739,22.9332921 35.1410109,22.7720999 C36.081896,21.9393435 37.2486381,21.5541304 38.3868686,21.9354127 C39.2422186,22.2223571 39.0118891,23.3510425 39.2215337,24.1180994 C39.310423,24.4443512 39.3221631,24.7919414 39.4199973,25.4966679 C39.6128703,26.2311557 39.0286607,26.364801 38.134177,26.2772016 C37.1094341,26.1755637 36.1255021,25.9430882 35.1879713,25.5202524 L35.1857351,25.5202524 Z M35.1857351,30.4617606 C34.6686117,30.163024 34.4433137,29.8176799 34.4992189,29.3684519 C34.5238172,29.1724762 34.7876899,29.1337303 34.9604371,29.234245 C35.4389858,29.5093972 35.2835693,29.939533 35.1879713,30.4634452 L35.1857351,30.4617606 Z M34.0022214,42.1658352 C34.0642762,41.8289142 34.0989375,41.4959239 34.6266828,41.6829151 C35.0783971,41.8429526 35.2975456,42.0159054 35.0275233,42.499387 C34.5909035,43.2855361 34.1677009,44.0812312 33.741703,44.8729956 L33.5337356,44.7926961 C33.687475,43.9167015 33.8395372,43.0407068 34.0022214,42.1658352 Z M34.3376528,39.453621 C34.4282193,38.5349497 34.5232581,37.6241399 34.8514219,36.5061237 C35.5832213,37.5483327 36.1098486,38.4153428 36.1579271,39.4676594 C36.1819663,39.9859563 36.1540137,40.6255447 35.3495375,40.5469297 C34.724517,40.4868455 34.2560311,40.2734622 34.3370937,39.453621 L34.3376528,39.453621 Z M36.2702966,29.6795423 C36.9327736,29.4184285 37.4806448,29.9445869 38.380719,30.3674227 C37.4616371,30.668967 36.9271831,31.261948 36.3161389,30.7346666 C36.0422033,30.4988219 35.9974791,29.7867955 36.2697375,29.6795423 L36.2702966,29.6795423 Z M38.8195751,40.0117869 C39.3993123,40.1459937 39.8219559,40.5042531 40.293237,41.2741176 C39.5636737,41.2078565 39.0454322,41.1814643 38.5338994,41.1056571 C38.2079719,41.0579266 37.8143991,40.9697656 37.9267686,40.5025685 C38.0329885,40.0589558 38.3958135,39.9152028 38.8190161,40.0129099 L38.8195751,40.0117869 Z M39.8364912,37.4579255 C39.5105638,36.9559132 38.6915521,36.4746777 39.6028074,35.7688282 C40.4072837,35.1460858 41.2173504,34.5896046 42.2079911,35.3993381 C42.9990501,36.0484726 43.3730561,36.9531056 43.6017085,37.913892 C43.8158256,38.812348 43.9662106,39.7282117 44.1249815,40.535699 C43.980746,41.0292883 44.3910904,41.6054233 43.7554479,41.7677069 C43.2142853,41.9058445 42.7228783,41.7514224 42.3729116,41.216841 C41.543837,39.9539488 40.6594162,38.7264332 39.8359322,37.4590486 L39.8364912,37.4579255 Z M44.515759,49.1636848 C45.113945,49.7774426 45.0060479,50.1615325 44.1887134,50.4350001 C43.9315494,49.920634 44.2703351,49.5870822 44.5152,49.1648078 L44.515759,49.1636848 Z M42.6099497,29.0994766 C42.590942,28.7507634 42.7385318,28.5592799 42.9839557,28.375658 C44.0651629,27.5681706 45.1424567,26.756191 46.3382695,25.8582964 C46.7637084,28.2021437 47.1628717,30.3915687 47.5581217,32.5815554 C47.6839084,33.2789819 47.4597285,33.562557 46.6966221,33.4457578 C44.9680323,33.1812748 42.7027524,30.7925047 42.6099497,29.0994766 Z M45.830091,35.4133765 C46.2616794,34.9147334 46.8073144,34.5974661 47.4513427,34.5486126 C48.0294028,34.5048128 47.9584031,35.0702786 48.0059226,35.3959689 C48.1864965,36.6274152 48.3027793,37.8667231 48.4425424,39.1060309 L48.1423313,39.1677997 C47.4166814,38.209821 46.6899134,37.2524037 45.9620273,36.295548 C45.755178,36.022642 45.5226122,35.7699512 45.830091,35.4133765 L45.830091,35.4133765 Z M48.2608504,32.4821637 C47.925419,30.4179609 47.6207355,28.3487043 47.0532974,26.3311089 C46.8760779,25.7021897 47.1930605,25.4775757 47.7286326,25.2872153 C48.6887428,24.95143 49.6313839,24.5672265 50.5529649,24.1360685 C51.1628909,23.8474395 51.5111805,23.8508087 51.7269747,24.5852965 C52.0243905,25.6117826 52.4017508,26.6141226 52.7410956,27.6282549 C52.7869379,27.7663925 52.788056,27.9213761 52.8456384,28.0527753 C53.1642982,28.776594 51.6313768,28.2773894 52.1563269,29.0955459 C52.4492703,29.5531969 53.1318731,29.4549283 53.4421472,29.9844558 C54.2544502,31.3798704 54.0448056,32.0059819 52.4772229,32.4653176 C51.5016766,32.7505774 50.5054454,32.9633992 49.5176,33.2026131 C49.3772779,33.2368667 49.229129,33.2391129 48.9523981,33.2722434 C48.4548416,33.3733197 48.3324091,32.9240917 48.2608504,32.4821637 Z M49.0077443,23.6744867 C49.506419,23.0904903 50.1532425,22.7468308 50.9677817,22.6586698 C50.4774928,23.2724276 49.7663783,23.51108 49.0077443,23.6744867 Z M53.2632504,20.714074 C53.0189446,21.130733 52.3268378,21.1722866 51.9679263,20.7837044 C51.2774967,20.0357397 52.0652014,19.4921738 52.3033576,18.7060248 C52.8920397,19.3995205 53.8083264,19.7824874 53.2632504,20.714074 Z M47.5609169,10.3374682 C48.0238122,10.0432239 48.5996361,9.80906376 48.9652563,10.4301215 C50.0140384,12.2118722 51.3809213,13.8324623 51.9081077,16.1920324 C50.393635,14.4366739 49.0569409,12.9031218 47.743168,11.3487928 C47.5100432,11.0742022 46.8732826,10.7737809 47.5592398,10.3374682 L47.5609169,10.3374682 Z M49.1665152,13.6853401 L47.3378551,12.0130888 C48.1462447,12.4875859 48.8008949,13.0934822 49.164838,13.6853401 L49.1665152,13.6853401 Z M44.4291059,9.03414542 C43.799613,8.79156229 43.1639706,8.56077139 42.5998868,7.74879174 C43.6061809,7.90882922 44.087525,8.36030339 44.4274288,9.03414542 L44.4291059,9.03414542 Z M42.0626375,8.33110357 C43.0493648,9.20822128 43.2836078,9.85960192 42.0626375,10.6805661 L42.0626375,8.33110357 Z M42.9610346,11.4392 C44.2216975,11.3712542 45.3878806,11.584076 46.4238045,12.3241792 C48.3916687,13.7280167 49.8720392,15.6142129 51.4083149,17.4442556 C51.7465415,17.8468762 51.6828096,18.212997 51.4793145,18.6543635 C50.7799401,20.1705081 49.6014578,20.99428 47.9662299,21.1363484 C47.2394619,21.1992403 46.5076624,21.1470175 45.7775401,21.1470175 L45.7775401,21.2239478 C44.953497,21.1604944 44.1210681,20.9903493 43.307088,21.0554873 C41.7020488,21.1857635 41.2246181,20.5736903 41.415255,18.9727539 C41.6634742,16.8922666 41.6947811,14.7825795 41.7506863,12.6835616 C41.7708122,11.8098131 42.1123932,11.4846843 42.9593574,11.4392 L42.9610346,11.4392 Z M39.9857582,3.64172453 C40.7125262,3.71247795 41.4460028,3.81018504 41.9211973,4.45763493 C42.0738186,4.66652596 41.8591425,4.87429392 41.6886315,4.89338611 C40.785203,4.99390088 40.1735998,4.53961905 39.6134294,3.8528617 C39.8286645,3.72707786 39.9119633,3.63442458 39.9857582,3.64172453 Z M40.7572504,6.32024662 C39.1516522,5.35609098 37.6919666,4.18641351 36.0941951,3.21271177 C38.0821851,3.58332489 39.9046956,4.20719031 40.7550142,6.32024662 L40.7572504,6.32024662 Z M33.1781783,2.30246349 C31.5116434,2.41477049 31.5116434,2.41477049 30.5170893,1.00475603 C31.5496589,1.37817683 32.3368046,1.68926724 33.1781783,2.30246349 Z M30.6104511,3.42553355 C31.1320469,2.87298308 31.6217767,3.0223514 32.137782,3.45080262 C32.4408941,3.71104843 32.834215,3.84024787 33.2318473,3.81018504 C33.4230432,3.33063413 32.672795,3.29862663 32.8405107,2.81346037 C33.4834209,2.671392 34.1039689,2.70115336 34.7267532,3.07569722 C36.73431,4.28355907 38.6356469,5.64247384 40.5269208,7.02328848 C41.8686464,8.00260557 40.9545959,9.27279781 41.0557843,10.3964294 C41.1407603,11.3370006 40.2032296,11.1264249 39.6514449,11.2948855 C38.4863799,11.6435987 37.3034253,11.9271739 36.1433917,12.297787 C35.461907,12.5156626 35.1410109,12.2904871 34.7323437,11.7160367 C33.5667197,10.0763544 32.8500146,8.37995711 33.7595927,6.13943235 C32.7532986,6.51285314 32.7532986,7.1501954 32.3390408,7.70274587 C31.7162565,6.72623645 31.1728577,5.87663395 30.6328132,5.02534685 C30.3007361,4.4924501 30.0983592,3.96516871 30.6104511,3.42553355 Z M30.1380519,5.9928717 C30.4561526,6.48477639 30.7116395,7.02385002 31.0733464,7.47981646 C31.8560196,8.46924118 32.2003958,9.50527331 31.5323283,10.8293729 C30.8083556,9.82478674 31.0442757,8.52988697 30.1743903,7.71622271 C29.6617393,8.15085082 29.8473447,8.63377095 29.9418245,9.10546037 C30.171595,10.2537995 30.2806102,11.4431307 30.6546162,12.5420548 C31.1499365,14.0020458 30.4869005,14.3513206 29.2502768,14.4327432 C27.563057,14.5450502 26.3745118,13.8661544 25.5364924,12.1467341 C24.367514,9.74673338 23.9694687,7.12604939 23.4243928,4.54860361 C23.2829525,3.8831846 23.7000055,3.81860807 24.1226491,3.6973165 C26.6831086,2.96900557 28.675012,3.72651632 30.1380519,5.99062556 L30.1380519,5.9928717 Z M23.2617085,2.22104091 C23.3114642,2.01944983 23.1118825,1.21701628 23.7844224,2.01271141 C23.9797225,1.89116556 24.1592464,1.74573918 24.3188764,1.57976791 C24.6039931,1.23891614 24.8980546,0.90592587 25.3369107,0.793618864 C26.0156002,0.62796603 26.8346118,0.561704897 27.114138,1.28327741 C27.3679477,1.94476567 26.5947784,2.23002547 26.088836,2.46250097 C25.5213979,2.72473783 24.8919051,2.84827554 24.3171993,3.09703556 C23.4612902,3.46877174 23.1348037,3.20428875 23.2639447,2.21879477 L23.2617085,2.22104091 Z M13.6460089,7.9565597 C16.0583196,6.4561381 18.6500861,5.36002172 21.3469544,4.50648848 C21.7282281,4.38575845 22.2414381,3.93653042 22.4046814,4.85295559 C22.8877025,7.59661575 23.843682,10.2167382 24.5743633,12.8963834 C24.7588506,13.5702254 24.7828899,14.2536135 24.7191579,14.9302632 C24.5229305,17.0264735 23.6390688,17.5133244 21.8808493,16.5205304 C19.5490422,15.2054154 17.2356837,13.7830472 14.6053427,13.2164583 C13.1098777,12.8941372 11.6015546,12.6903 10.1888295,12.06475 C10.0144051,11.9872581 9.83998081,11.9080817 9.51796669,11.7637672 C10.6170635,10.0628776 12.065568,8.93868447 13.6482451,7.95431356 L13.6460089,7.9565597 Z M8.06163543,16.6294682 C8.06163543,15.8764498 8.12592645,14.7584335 8.4898695,13.676917 C8.70119127,13.0496824 8.94661523,12.6953538 9.74717813,12.9957751 C12.3668972,13.9778998 14.7965385,15.3165993 17.0551099,16.9383125 C18.5270946,17.995683 18.5488976,19.3529131 17.2759355,20.6770127 C16.3635622,21.6254454 15.4031103,22.5267091 14.1021956,22.9461758 C13.09087,23.2724276 13.0959014,24.4718665 12.2886299,25.0710243 C11.5299959,25.6325594 11.2733909,25.6162748 10.750118,24.8750486 C8.7336163,22.0168353 8.0163522,20.0228244 8.06163543,16.6294682 Z M8.19189462,37.8773922 C7.99454916,38.8185249 7.45338653,39.1026617 6.69922497,39.0897463 C5.73989121,39.0734618 5.92885089,38.24239 5.9310871,37.6606397 C5.93947289,35.6014907 6.84122425,33.8371477 7.896715,32.0963891 C8.17232779,34.0235773 8.60335712,35.9159504 8.19189462,37.8773922 Z M8.27072099,24.9884787 C8.42557848,24.1371916 8.73697062,23.991754 9.38435318,24.6307809 C10.7372598,25.9655496 10.7914878,26.5287693 9.62921809,27.9842681 C9.29937723,28.3975578 8.97289069,28.8130938 8.37302757,29.570043 C8.45241299,27.7647079 8.01411599,26.3951239 8.27072099,24.9884787 Z M11.2370525,27.4283484 C12.4546684,29.2067298 13.6292373,30.9867959 14.588012,32.9027534 C14.9731991,33.673741 14.8451761,34.2330299 14.0004481,34.6923655 C12.9758023,35.2521487 12.0040658,35.9045416 11.0972894,36.6414536 C10.1172708,37.4354641 9.61076937,37.0030822 9.23285001,36.0855339 C7.90677794,32.8572691 8.55360146,30.003548 11.2370525,27.4283484 Z M11.3114065,47.372388 C11.0877856,47.1988737 10.9038573,46.9753828 10.7014804,46.7743532 L10.6740869,46.7889531 L10.6740869,46.7889531 L10.6936537,46.7687379 C9.45423472,46.6929306 9.0489218,46.0387423 9.24403106,44.8297574 C9.39050276,43.9189476 9.38323508,42.9828687 9.435786,42.057459 C9.51405332,40.6755213 10.3375374,39.8416417 11.6719952,40.0920864 C13.7601109,40.4866229 15.7920323,41.1374547 17.7220592,42.0299438 C15.3768348,43.7970945 12.6592816,44.7314888 10.6947718,46.7687379 L10.6981261,46.7687379 L10.7025985,46.7737917 C13.0729803,45.4929303 15.4729918,44.2642916 17.7975313,42.9053769 C18.799353,42.3196958 19.1392568,42.5886711 19.3243032,43.5876419 C19.4131925,44.0632621 19.6077427,44.5181055 19.7156398,44.9914795 C20.2500938,47.3246576 18.8379276,48.8660712 16.4295303,48.5634038 C14.6852871,48.3427206 12.8337059,48.55835 11.3130836,47.372388 L11.3114065,47.372388 Z M12.8504775,50.6455757 C13.9724954,50.4619538 14.790389,50.7971902 15.7664943,51.723723 C14.5293115,51.5378549 13.6482451,51.3912942 12.8521546,50.6455757 L12.8504775,50.6455757 Z M18.7904082,52.2846965 C17.7841141,52.1774433 16.5351912,52.2408967 16.1136658,50.9437508 C15.9459501,50.4243309 17.3994861,49.4247986 18.3168909,49.4410831 C18.756306,49.9211955 20.1416376,49.1277465 20.0236776,50.5248457 C19.9627409,51.2509105 20.0085832,52.4138495 18.7904082,52.2846965 Z M19.0380684,54.4746831 C20.2003381,54.3545146 20.9209565,54.8492269 22.0821082,55.3602238 C20.7001309,55.5999993 19.7681907,55.8167518 19.0380684,54.47356 L19.0380684,54.4746831 Z M21.3301828,54.5308366 C22.4399016,53.9024789 23.2175434,53.9024789 24.3977028,54.5454365 C23.2672991,55.5208228 22.3208235,55.0412719 21.3290647,54.5325212 L21.3301828,54.5308366 Z M35.7179529,55.3613469 C34.9453426,56.8477301 33.5622472,57.1762281 32.0561603,57.3267195 C29.3475519,57.5962563 26.8994619,56.6596159 24.1226491,55.6701912 C27.1242009,54.8110426 29.8451085,54.3702376 32.6029135,54.1321467 C33.3296815,54.0698163 34.0564495,54.0265781 34.7832175,53.9681785 C35.2131287,53.9339249 35.7677086,53.687411 36.0360537,54.0310704 C36.3770756,54.4690677 35.9359833,54.9424418 35.7179529,55.3613469 Z M36.947868,48.9772551 C36.7740027,50.4490385 35.386994,49.6780509 34.5802815,49.6123513 C33.7344353,49.5432825 32.7203145,49.3669605 32.4715362,48.2276059 C32.4570008,48.1596601 32.5587484,48.0591454 32.6196851,47.9827766 C34.0631581,46.2060798 35.1823808,44.2148766 36.4050282,42.2478194 C37.0048913,44.5209132 37.2078273,46.7687379 36.947868,48.9772551 Z M36.4212407,33.3710736 C36.9473089,32.5254018 37.3341731,32.1008814 38.1319408,31.7106145 C37.7461947,32.519225 37.2928033,32.8763612 36.4212407,33.3710736 Z M38.0212484,42.9385074 C38.6468279,42.0597051 39.9684276,43.0294761 41.009383,43.0137531 C42.4332892,42.9918533 43.1846555,44.221615 42.8486651,45.7596594 C42.5501311,47.1253126 39.9046956,49.3029455 38.5216002,49.3652759 C37.9748471,49.3899834 38.0095083,49.0569931 38.0078312,48.7110875 C38.0044768,47.8339698 38.0078312,46.9568521 38.0078312,46.0797344 L37.9200599,46.0797344 C37.9189418,45.0083256 37.5164242,43.6482877 38.0212484,42.9385074 Z M42.0838815,51.4176864 C41.3079169,51.6670079 40.6174873,51.9792214 40.1350252,50.9684584 C40.0019707,50.6876908 39.6989644,50.3507698 39.321045,50.4883459 C38.988968,50.6107605 39.0879202,50.9791275 39.1594789,51.2565258 C39.2360691,51.555824 39.1527703,51.7619074 38.8424963,51.7276537 C38.5674425,51.6956462 38.2448693,51.6153467 38.0519963,51.4367786 C37.7942732,51.1981262 37.9401858,50.8752435 38.1816964,50.6792678 C39.4736824,49.633816 40.9904303,48.9051432 42.6116269,48.5510501 C43.4138669,48.5055657 43.7856367,48.5622808 43.5541891,49.2512842 C43.2612457,50.112679 43.1762697,51.0661655 42.0838815,51.4176864 Z M42.8861216,52.6918094 C43.2349702,51.4963013 43.8230932,50.9510508 44.9367254,51.0072043 L42.8861216,52.6918094 Z M44.9954259,36.7896989 C46.0503576,38.0812294 46.8520386,39.0459466 47.6347118,40.0263868 C47.9092065,40.3700462 48.1825831,40.7563823 47.7800654,41.1870797 C47.2210131,41.7879222 46.5261111,42.0698127 45.7031861,42.0366822 C45.049654,42.01029 45.1016458,41.4616703 45.0619531,41.0758957 C44.9311349,39.7955959 44.7416162,38.5091191 44.9954259,36.7896989 L44.9954259,36.7896989 Z M45.2794245,43.3287743 C46.0570662,42.6223632 46.8911723,43.2422979 48.1009615,43.3456203 C47.1472182,44.1036926 46.5808982,44.7449656 45.6970366,43.9801549 C45.4795652,43.7942868 45.0636303,43.52475 45.2794245,43.3287743 L45.2794245,43.3287743 Z M47.8298211,47.4611106 C47.3887288,48.2635441 46.9168887,49.0334086 45.9094764,49.3220377 C45.5813127,48.3045362 45.8876734,47.4768335 46.3103169,46.6457617 C46.6770552,45.9253123 47.1159113,46.2302258 47.6246489,46.4351861 C48.2742677,46.6968614 48.0472924,47.0646668 47.8298211,47.4611106 L47.8298211,47.4611106 Z M48.2306616,45.5221301 C47.9880329,45.3615311 47.5229014,45.3576003 47.6380662,44.8971416 C47.7185697,44.5765051 47.9964187,44.2440764 48.3167557,44.2637301 C48.5806283,44.2800146 48.6779034,44.6674738 48.6806987,44.9611566 C48.683494,45.2548394 48.6695177,45.5546991 48.2306616,45.5221301 L48.2306616,45.5221301 Z M50.1940533,44.7118351 C50.0459044,44.9645258 49.8988737,45.2733701 49.5673557,45.1762245 C49.2190661,45.0757098 49.3118688,44.7202581 49.3280813,44.4552136 C49.3454119,44.1677076 49.4074667,43.8341558 49.8189292,44.03687 C50.0688256,44.1604077 50.2751159,44.3765986 50.1940533,44.7118351 L50.1940533,44.7118351 Z M49.6545678,39.8186188 C48.8718946,38.3934429 49.1352082,36.7526376 48.7293363,35.2550236 C48.5800693,34.5407511 48.9445714,34.2706527 49.581332,34.1847379 C50.9370338,34.0016774 52.2720507,33.7057485 53.5192964,33.1385981 C54.113569,32.8684998 54.2779304,33.056614 54.3958904,33.6063568 C54.5820548,34.4744899 54.3282451,35.2561467 53.964302,36.0024268 C53.2531875,37.4590486 52.2418619,38.7185717 51.3043312,40.0303175 C50.533398,41.1090263 50.0990144,40.6272293 49.6545678,39.8186188 L49.6545678,39.8186188 Z M51.4435352,44.1222233 C51.6565341,43.3574126 51.8482891,42.5746327 53.0647869,42.3466495 C52.5940648,43.1726675 52.13676,43.7437487 51.4452123,44.1222233 L51.4435352,44.1222233 Z M53.1318731,40.87992 L54.3461348,38.9431857 C54.4819845,39.8994799 53.9335542,40.4615764 53.1318731,40.87992 Z M54.4260792,38.0368682 C54.2432691,37.0468819 54.263395,36.4263857 54.7615106,35.6110368 C54.9085414,36.5094929 55.1098002,37.1473967 54.4260792,38.0391143 L54.4260792,38.0368682 Z M55.4485859,36.0153421 C55.128808,35.1780933 54.968919,34.3498292 55.845513,33.4553039 C56.2128104,34.4958283 55.7650095,35.2494083 55.4485859,36.0198343 L55.4485859,36.0153421 Z" id="Shape" fill="#AFA697" fill-rule="nonzero"></path>
                        <polygon id="Path" fill="#AFA697" fill-rule="nonzero" points="12.0135 46.988 11.9865 47.012 11.9865 47.012"></polygon>
                        <path d="M12.007,46.9945 L11.993,47.0055 L12.007,46.9945 Z" id="Path" fill="#AFA697" fill-rule="nonzero"></path>
                        <g id="Group-3" transform="translate(66.947078, 14.000000)" fill="#AFA697" fill-rule="nonzero">
                            <path d="M52.143601,19.0235726 C52.143601,15.4278271 52.150767,11.8320816 52.1402936,8.23633618 C52.1358837,6.63705924 52.0300467,6.54467624 50.4314665,6.53748475 C49.3598666,6.53305921 48.2882667,6.53029325 47.2166668,6.53748475 C45.9692231,6.54744219 45.7779447,6.73110181 45.776291,7.99182549 C45.7707786,13.8342665 45.7707786,19.6767075 45.776291,25.5191485 C45.776291,27.0404254 45.7371533,28.5617023 45.792828,30.0824261 C45.8203897,30.835873 45.5464262,31.0134475 44.8452559,30.9891071 C43.4296856,30.9404263 42.0080518,30.9210645 40.5946864,30.9940858 C39.6812908,31.0416603 39.3819705,30.815405 39.3885853,29.8323835 C39.4365427,22.8134883 39.4144933,15.7945932 39.4139421,8.775698 C39.4139421,8.53395327 39.4200057,8.29165534 39.4139421,8.04991061 C39.373702,6.70842095 39.2215612,6.54910177 37.9101743,6.53969751 C36.7691189,6.53084645 35.6269609,6.50484644 34.4881104,6.55242092 C33.1651475,6.60774008 32.9319753,6.85391035 32.9308729,8.18599574 C32.9308729,12.127486 32.9545759,16.068423 32.961742,20.0099132 C32.9678056,23.3633608 32.9418975,26.7173615 32.9799327,30.070809 C32.9882012,30.8043411 32.7732198,31.0195327 32.0505513,30.9918731 C30.6349811,30.9365539 29.2161034,30.9608943 27.7994307,30.9835752 C27.3171005,30.9913199 27.0828258,30.8441709 27.1407054,30.3396602 C27.1470457,30.2361266 27.1470457,30.1323 27.1407054,30.0287665 C27.1098363,23.0810486 27.0806209,16.1335152 27.0529221,9.18616618 C27.0492005,7.97854889 27.128027,6.77037841 27.137398,5.56220794 C27.1649597,2.20378167 29.2772904,0.0369301316 32.6387186,0.023653533 C38.5148786,-0.00031810347 44.3912224,-0.00031810347 50.2677499,0.023653533 C51.5041689,0.0280790659 52.7438954,-0.105793304 53.9775582,0.218930171 C56.3991315,0.855653715 57.8097406,2.52407961 57.8968357,5.03501633 C57.9679449,7.07020827 58.0208635,9.10705978 58.0263758,11.1428049 C58.0423616,17.4010616 58.0136974,23.6593183 58.0529221,29.917575 C58.0583474,30.7965964 57.8031258,31.0394476 56.9536734,30.9924263 C55.6760758,30.9243833 54.3957813,30.9243833 53.1181836,30.9924263 C52.3409429,31.0322561 52.1210003,30.801022 52.1298201,30.0177026 C52.1678553,26.3539146 52.1441522,22.6901266 52.143601,19.0235726 Z" id="Path"></path>
                            <path d="M69.0348127,16.6085106 C69.0348127,21.4108179 69.0168486,26.2131251 69.0527769,31.0148768 C69.0589521,31.781557 68.8703284,32.0271169 68.0698005,31.9976719 C66.3559073,31.9354486 64.6380845,31.9604491 62.9219459,31.9887829 C62.3319355,31.9987831 62.0512455,31.8971146 62.0529221,31.2109914 C62.0735135,21.3997066 62.0746363,11.5880514 62.0562979,1.77602587 C62.0562979,1.19490447 62.2286416,0.995456495 62.8287568,1.00601224 C64.6145066,1.03823503 66.4019405,1.05045747 68.1871289,1.00101215 C68.9051339,0.98156736 69.0505314,1.2410164 69.0477245,1.88991677 C69.0241465,6.7966703 69.0348127,11.7028683 69.0348127,16.6085106 Z" id="Path"></path>
                            <path d="M243.034059,15.5425312 C243.034059,20.3450936 243.016443,25.147656 243.051676,29.9502184 C243.057358,30.7413712 242.87324,31.0333705 241.99868,30.9970084 C240.285361,30.9281406 238.566927,30.9562387 236.851335,30.9876424 C236.249542,30.9986612 236.052354,30.8162994 236.055763,30.2251385 C236.071296,20.4128594 236.070349,10.6003968 236.052922,0.787750421 C236.052922,0.102929374 236.342169,-0.00174962737 236.94453,0.00816733067 C238.660123,0.0362653784 240.377988,0.0527936418 242.092444,0.00155602531 C242.845395,-0.0210326013 243.058495,0.19824236 243.052812,0.926587833 C243.018716,5.79911988 243.034059,10.67055 243.034059,15.5425312 Z" id="Path"></path>
                            <path d="M146.647171,0.0153471737 L136.755357,0.0120584936 L136.755357,0 L129.321407,0 L129.321407,0.00986604025 L126.927812,0.00986604025 C126.894837,0.00370065852 126.861345,0.000581031597 126.827776,0.000548113347 L119.603399,0.000548113347 C119.299379,0.000548113347 119.052922,0.242265837 119.052922,0.54043976 L119.052922,5.2481853 C119.052922,5.54635922 119.299379,5.78807694 119.603399,5.78807694 L128.914558,5.78807694 C129.022113,5.78793145 129.125314,5.82973413 129.20142,5.90427352 C129.277525,5.97881291 129.32029,6.07997178 129.32029,6.18545912 C129.32029,14.9410217 129.32029,29.9056123 129.32029,29.9828963 C129.325319,30.092519 129.340968,30.4822276 129.512537,30.7118871 C129.684107,30.9415466 130.003216,30.9695003 130.211112,30.9936173 C130.403918,31.0155419 131.098581,30.9744334 131.198058,30.9684041 L135.794119,30.9684041 C135.9332,30.9654034 136.071676,30.9494362 136.207675,30.9207182 C136.792801,30.8659069 136.755916,30.1402048 136.755916,30.1402048 L136.755916,6.18765157 C136.755767,6.08192392 136.798525,5.98048469 136.874752,5.90572388 C136.950978,5.83096307 137.054406,5.78902744 137.162207,5.78917317 L146.645495,5.78917317 C146.754124,5.78947121 146.858352,5.74709174 146.934902,5.67149849 C147.011453,5.59590525 147.05395,5.49339453 147.052922,5.38685797 L147.052922,0.41108501 C147.051673,0.192170869 146.870381,0.0153438509 146.647171,0.0153471737 Z" id="Path"></path>
                            <path d="M183.58863,0 C189.020874,0 193.179559,0 198.613816,0 L199.052922,0 C198.968923,0.161114659 198.921643,0.262842344 198.865308,0.358521357 C197.953215,1.89766837 197.200165,3.54270915 196.619981,5.26344544 C196.522904,5.55378175 196.398667,5.63681354 196.125546,5.63626366 C191.688207,5.62746559 190.144041,5.62966511 185.706702,5.63021499 L185.706702,5.63021499 C184.435657,5.63021499 183.392968,6.5793068 183.269737,7.97490067 C183.204255,8.80788852 183.221119,9.64616698 183.320035,10.4752022 C183.435722,11.5133745 184.150968,12.1622322 185.181082,12.1924755 C187.087901,12.2474635 188.997234,12.2293174 190.904052,12.2914538 C191.809426,12.3211473 192.727878,12.3865829 193.616151,12.5735419 C195.948998,13.0634845 197.583701,14.5305627 198.33818,17.0171172 C199.302403,20.19542 199.335097,23.395718 198.158614,26.5201327 C197.337238,28.7009543 195.752331,30.0432099 193.747933,30.8091919 C193.40037,30.9417128 193.008544,30.9835036 192.637341,30.9851533 C188.929331,30.9972506 185.221321,30.9851533 181.513814,31 C181.068672,31 180.799071,30.6799702 180.497783,30.4396729 C178.934001,29.1941961 177.82693,27.5588548 177.134821,25.5864375 C177.117051,25.5158453 177.104768,25.4437379 177.098103,25.3708848 L177.55079,25.3708848 C181.977064,25.3708848 186.403337,25.3637363 190.82609,25.379133 C191.435205,25.379133 191.861737,25.1311374 192.214833,24.6093018 C192.768117,23.7905314 193.098076,22.9013765 193.049789,21.8720023 C193.022628,21.3028771 193.011562,20.7271534 192.924545,20.1673762 C192.776668,19.2122357 192.241994,18.5826238 191.379877,18.3648716 C190.824682,18.222416 190.25746,18.1433594 189.68733,18.1289733 C188.034519,18.0976302 186.3802,18.1438201 184.727892,18.1064283 C183.173164,18.0706861 181.663704,17.7990457 180.27496,16.9434334 C179.326833,16.3589116 178.642269,15.5285937 178.165439,14.4854725 C177.162989,12.2920037 176.868742,9.9583156 177.159468,7.54874415 C177.27616,6.58315595 177.445666,5.59447283 177.775122,4.69706968 C178.676472,2.242958 180.447485,0.820420037 182.718465,0.0874308216 C182.991586,-0.000549879381 183.295892,0.00714843196 183.586115,0.00659855258" id="Path"></path>
                            <path d="M23.0043228,0.000734211636 C22.9197804,0.162077219 22.8721936,0.263949083 22.8154945,0.359213043 C21.8986387,1.89888448 21.1415679,3.54439578 20.5581606,5.2655823 C20.4604558,5.55633011 20.3359203,5.63892892 20.0610308,5.63837826 C15.6003621,5.62956772 11.1395247,5.62754864 6.67851856,5.63232101 C5.99002919,5.63232101 5.9469986,5.67857635 5.9469986,6.4170097 L5.9469986,11.6813071 C5.9469986,12.3393443 6.01635378,12.4175378 6.61523829,12.4175378 L18.815675,12.4175378 C18.2248903,14.5050851 18.3792942,16.5408704 18.9437543,18.5959288 L6.60966963,18.5959288 C6.01078512,18.5959288 5.94750485,18.6658624 5.9469986,19.3332608 C5.9469986,21.1008753 5.9469986,22.8688569 5.9469986,24.6372057 C5.9469986,25.2979961 6.01736627,25.3750884 6.61118835,25.3750884 C11.0964941,25.3750884 15.5817999,25.373987 20.0671057,25.3717844 C20.2777024,25.3717844 20.4214752,25.3883042 20.5120925,25.6520697 C21.1339474,27.4715288 21.9594286,29.200763 22.9698984,30.8007288 C23.0006486,30.8588246 23.0283671,30.9187577 23.0529221,30.9802435 C22.9056056,30.9874021 22.7891699,30.9978646 22.672228,30.9978646 C17.1481132,30.9978646 11.6239985,31.0066752 6.09988374,30.9885034 C5.41649685,30.9936318 4.73478249,30.9143805 4.06782761,30.7522708 C1.87073652,30.1889469 0.713466883,28.5243056 0.223424446,26.230812 C0.114317589,25.6992281 0.060486752,25.1559889 0.0629456732,24.6113247 C0.0518083451,18.5496734 0.0499521238,12.4878386 0.0573770092,6.42582024 C0.0573770092,5.31073632 0.247724071,4.23805312 0.703342039,3.22704369 C1.62470282,1.18079586 3.17684136,0.189059496 5.22104731,0.0205579258 C5.53694243,-0.00587369309 5.85587501,0.000734211636 6.1737951,0.000734211636 C11.6368233,0.000734211636 17.0996827,0.000734211636 22.5623734,0.000734211636 L23.0043228,0.000734211636 Z" id="Path"></path>
                            <path d="M149.075408,15.4718872 C149.075408,12.1484115 149.014942,8.82493578 149.092318,5.50589139 C149.173795,1.99076194 151.118974,0.0271417181 154.355473,0.0221565046 C159.976815,0.0121860775 165.598157,0.004800576 171.219499,0 C172.077304,0 172.26639,0.332347569 171.81699,1.13219739 C171.150833,2.31535473 170.516959,3.51402163 170.042962,4.80629976 C169.762664,5.57125308 169.205654,5.84045461 168.434449,5.83491549 C164.515395,5.80832768 160.594291,5.81885202 156.676262,5.82494506 C155.264521,5.82494506 155.197393,5.91744847 155.18407,7.40248819 C155.173309,8.57678293 155.147175,9.75107768 155.113355,10.9248185 C155.085684,11.9052438 155.442846,12.2802427 156.503061,12.2830122 C159.908149,12.290767 163.31375,12.2830122 166.71935,12.2863357 C168.002984,12.2863357 168.070625,12.341727 167.908185,13.6711173 C167.74267,15.0193406 167.665294,16.3587013 168.01477,17.6847681 C168.185921,18.3339536 167.870265,18.6147873 167.354762,18.6629777 C166.749071,18.718369 166.135694,18.6962125 165.525392,18.6967664 C162.441596,18.6967664 159.356776,18.7239081 156.273493,18.6807029 C155.414663,18.6690708 155.136414,19.0041879 155.173821,19.8954333 C155.225064,21.1040706 155.180483,22.3176932 155.188169,23.5291001 C155.196881,24.8767695 155.446946,25.1509562 156.733654,25.1548336 C160.010635,25.164804 163.295302,25.30439 166.562035,25.1066432 C168.729095,24.9753659 170.241272,25.4284664 170.823904,27.9072254 C170.96021,28.4877258 171.37374,28.9940019 171.663774,29.5318511 C172.311996,30.7327336 172.172103,30.9869795 170.843888,30.990303 C169.01281,30.994365 167.181561,30.994365 165.350141,30.990303 C161.720097,30.990303 158.08954,31.0179986 154.459496,30.9797787 C152.20481,30.9565143 150.384663,30.0641611 149.467416,27.6707047 C149.171233,26.8985505 149.077458,26.0737746 149.078995,25.2334892 C149.085144,21.9801758 149.085999,18.7266777 149.081557,15.472995 L149.075408,15.4718872 Z" id="Path"></path>
                            <path d="M93.6540459,29.5754524 C91.7987472,26.0314649 89.9748245,22.4687232 88.0963796,18.9385256 C87.6797476,18.155263 87.8757189,17.8276165 88.5649621,17.4519814 C90.5915429,16.3487947 91.7215931,14.504818 92.2230947,12.1605461 C92.5234813,10.7572925 92.4329538,9.34300711 92.3835752,7.94085673 C92.2056065,2.86619761 89.3066701,0.0199757622 84.6043855,0.0734803203 C80.8017176,0.117056197 76.998021,0.0216305424 73.1948388,0 C72.4994232,-0.00374275322 72.2376137,0.0856153747 72.293679,0.447460633 C72.3279766,0.6126826 72.3831816,0.77209896 72.45776,0.921279348 L74.1793249,5.88175863 L75.0964299,5.88175863 C75.2605165,5.90805639 75.4264124,5.91912929 75.5922735,5.91485424 C78.236087,5.86245286 80.883501,5.97828747 83.5247426,5.87348473 C85.9813289,5.77530111 86.4956895,7.15428457 86.4442534,9.15656854 C86.4396242,9.32866568 86.4195641,9.49965963 86.4118487,9.67120517 C86.3218356,11.6569413 85.8661121,12.1169702 83.9665784,12.1180734 C81.6121785,12.1180734 79.25795,12.1180734 76.903893,12.1180734 C74.035304,12.1219346 72.099765,14.1413179 72.0647885,17.1999032 C72.0411279,19.2678268 72.0601593,21.3368536 72.0601593,23.4047772 C72.0601593,25.4383181 72.0601593,27.4720429 72.0601593,29.5059516 C72.0601593,30.9400944 72.0941071,30.9737416 73.3974968,30.9621581 C74.3329473,30.9537004 75.2682263,30.9537004 76.2033339,30.9621581 C77.4069377,30.97319 77.6178255,30.7966801 77.6322276,29.5031936 C77.6702903,26.1290969 77.7808778,22.7533454 77.5720474,19.3809035 C77.5293555,18.6831378 77.7721337,18.2551014 78.4978965,18.2777167 C79.141876,18.2959193 79.7909991,18.3372888 80.4298349,18.2777167 C81.261556,18.1971841 81.7316816,18.5860574 82.1051074,19.3489111 C83.8801658,22.9756375 85.69483,26.5803003 87.4817187,30.2004077 C87.7522724,30.7481399 88.1133535,31.0106983 88.7058969,30.9996665 C90.0946706,30.9737416 91.4788149,30.9952537 92.8650167,30.9902894 C94.2327016,30.9831187 94.3077982,30.8242598 93.6540459,29.5754524 Z" id="Path"></path>
                            <path d="M232.978047,30.2454459 C232.682652,29.3060093 232.364963,28.3715461 232.050619,27.4376356 C231.321049,25.25759 230.622133,23.06815 229.898695,20.8864466 C229.292671,19.0606238 228.698165,17.230196 228.115178,15.3951631 C227.95076,14.8806834 227.872174,14.3335997 227.610777,13.8478557 C227.566193,13.7663266 227.528894,13.6810834 227.499308,13.5931026 C227.046183,12.2281564 226.588042,10.8643155 226.142721,9.49715887 C225.157699,6.47401493 224.178437,3.44921317 223.204935,0.422753568 C223.110185,0.127107333 222.960816,-0.00109813781 222.643684,0 C220.218473,0.00774361878 217.793634,0.00774361878 215.369167,0 C215.043675,0 214.902666,0.123239064 214.811818,0.415017031 C214.369283,1.83890825 213.917273,3.26022062 213.455788,4.67895414 C212.675499,7.07009669 211.877933,9.45626575 211.095415,11.8468557 C210.419351,13.9130637 209.757778,15.9831399 209.083943,18.0499005 C208.320747,20.392966 207.554949,22.7352947 206.786551,25.0768866 C206.233661,26.7667673 205.6817,28.4570164 205.130668,30.147634 C205.09035,30.2692244 205.065084,30.3952219 205.055426,30.522856 C205.036476,30.7925296 205.117291,30.7963979 205.568744,30.7963979 C210.068779,30.7986083 214.568999,30.7986083 219.069406,30.7963979 L219.844121,30.7963979 L219.869201,24.6303779 L219.052128,24.6303779 C218.964624,24.6204309 218.864859,24.6149048 218.750602,24.6121417 C218.651952,24.6121417 218.553301,24.6121417 218.454093,24.6121417 L214.200963,24.6121417 C213.572831,24.6121417 213.509293,24.5485916 213.746167,23.991561 C214.095624,23.1692776 214.330268,22.3072063 214.593337,21.4617134 C215.001874,20.1492651 215.460014,18.8528426 215.865764,17.5381839 C216.487208,15.525579 217.158814,13.527342 217.810355,11.523579 C218.125814,10.5526436 218.450191,9.58447122 218.765651,8.61298321 C218.810796,8.47427816 218.82473,8.24770814 219.038194,8.26649688 C219.205399,8.28086473 219.2093,8.47759382 219.256675,8.61298321 C220.026374,10.8123702 220.691848,13.0443611 221.430336,15.2531424 C221.796514,16.3439941 222.132038,17.445898 222.489299,18.5395128 C223.013578,20.1398707 223.535442,21.7409655 224.054892,23.3427971 C224.400448,24.40215 224.75102,25.4609504 225.088216,26.523619 C225.422626,27.5735776 225.803852,28.6108262 226.078068,29.6795735 C226.096618,29.7570413 226.109654,29.8357056 226.117082,29.9149853 C226.137759,30.0430572 226.175233,30.1678996 226.228552,30.286339 C226.507227,30.9920217 226.510571,30.9776539 227.27804,30.9947848 C229.024214,31.0345727 230.764815,30.8317649 232.511546,30.8903415 C233.058305,30.9102355 233.141908,30.7676622 232.978047,30.2454459 Z" id="Path"></path>
                            <path d="M123.977787,30.2398919 C123.68219,29.2996038 123.363301,28.3659142 123.050512,27.4322246 C122.320671,25.2530658 121.621888,23.0634592 120.898702,20.8821008 C120.29309,19.0561457 119.698384,17.2257915 119.114586,15.3910384 C118.948209,14.8769042 118.87223,14.3297775 118.610463,13.8458866 C118.566006,13.7644241 118.52889,13.6792291 118.499545,13.591294 C118.046445,12.2265015 117.588354,10.8633588 117.143018,9.49581696 C116.158805,6.47296488 115.179029,3.44864647 114.20369,0.422861718 C114.108855,0.12702839 113.959671,-0.00109273542 113.642445,0 C111.217777,0.00770528178 108.793109,0.00770528178 106.368441,0 C106.042897,0 105.901476,0.123729134 105.811078,0.415163453 C105.367406,1.83860932 104.915415,3.25967239 104.455105,4.67835266 C103.674242,7.06921384 102.877296,9.45512613 102.09477,11.8459873 C101.419279,13.9118717 100.756544,15.9816053 100.083826,18.0485894 C99.3207099,20.3914281 98.5548209,22.7333503 97.786159,25.074356 C97.2337873,26.7646751 96.6819701,28.4549941 96.1307075,30.1453132 C96.0904071,30.2668457 96.0650817,30.3927654 96.0552833,30.5203287 C96.0369818,30.789768 96.1173974,30.7952667 96.5688337,30.7952667 C101.068778,30.7952667 105.568537,30.7952667 110.068112,30.7952667 L110.123571,30.7952667 L110.844538,30.7952667 L110.869495,24.6295063 L110.052583,24.6295063 C109.964958,24.6201584 109.865132,24.6146596 109.751441,24.6113604 C109.652724,24.6113604 109.553452,24.6113604 109.454735,24.6113604 L105.204356,24.6113604 C104.576006,24.6113604 104.512228,24.5481246 104.749038,23.9911002 C105.098984,23.1662861 105.333576,22.3068298 105.596452,21.4616702 C106.00463,20.149116 106.463276,18.8525082 106.868681,17.5394042 C107.490377,15.5268577 108.161431,13.529158 108.813074,11.5254095 C109.128636,10.5543284 109.453071,9.58599663 109.768633,8.61491548 C109.813555,8.47634671 109.82742,8.24979777 110.040937,8.26849356 C110.207314,8.28279033 110.211751,8.47964597 110.259445,8.61546536 C111.029216,10.8149697 111.69417,13.0463668 112.435102,15.2541192 C112.801132,16.3456232 113.136659,17.447025 113.49437,18.5407285 C114.018642,20.1408679 114.540511,21.7417404 115.059977,23.3433462 C115.405487,24.4029573 115.755988,25.4620187 116.093179,26.5243792 C116.425933,27.5751924 116.8086,28.6111589 117.083122,29.6795682 C117.101582,29.7572093 117.114554,29.836033 117.121944,29.915465 C117.142604,30.0434151 117.179887,30.1681743 117.232862,30.2866314 C117.513484,30.9921224 117.514593,30.9772757 118.282146,30.9948717 C120.027996,31.0344628 121.768854,30.8299089 123.515258,30.8903953 C124.058202,30.9046921 124.141945,30.7633739 123.977787,30.2398919 Z" id="Path"></path>
                        </g>
                    </g>
                </g>
            </g>
        </g>
    </g>
</svg>